<?xml version="1.0" encoding="UTF-8"?>
<svg height="1000" width="1000" xmlns="http://www.w3.org/2000/svg">
 <metadata/>
 <g fill="#7509b7" transform="translate(199.5 -139.84)">
  <path d="m300.484 140.344c-275.866 0-499.484 223.617-499.484 499.484 0 275.866 223.617 499.516 499.484 499.516 275.866 0 499.516-223.65 499.516-499.516-.00003-275.866-223.65-499.484-499.516-499.484zm-.22932 61.5878c242.151 0 438.453 196.302 438.453 438.453s-196.302 438.453-438.453 438.453c-242.151 0-438.453-196.302-438.453-438.453s196.302-438.453 438.453-438.453z"/>
  <path d="m51.5444 469.085v340.076h138.376c62.8918 0 111.218-39.2666 111.218-101.456 0-54.8495-42.8166-75.7726-42.8166-75.7726s32.8578-20.9838 32.8578-67.6483c0-54.2039-42.7936-95.199-105.911-95.199h-133.724zm76.5261 66.469h40.8838c29.0575 0 41.7356 14.9363 41.7356 33.3819 0 20.0253-14.3554 32.6612-39.8028 32.6612h-42.8166zm0 134.183h40.8838c29.0575 0 41.7356 14.9363 41.7356 33.3819 0 20.0253-14.3554 32.6612-39.8028 32.6612h-42.8166z"/>
  <path d="m403.774 808.099v-261.027h-76.5261v-78.6227h237.965v78.6227h-79.671v261.027z"/>
 </g>
</svg>
