<?xml version="1.0" encoding="UTF-8" standalone="no"?>
<!-- Created with Inkscape (http://www.inkscape.org/) -->
<svg
   xmlns:svg="http://www.w3.org/2000/svg"
   xmlns="http://www.w3.org/2000/svg"
   xmlns:inkscape="http://www.inkscape.org/namespaces/inkscape"
   version="1.0"
   width="168.36006"
   height="68.674339"
   id="svg2"
   xml:space="preserve"><defs
     id="defs5"><inkscape:perspective
       id="perspective9" /><clipPath
       id="clipPath17"><path
         d="M 0.029999,793.701 L 595.276,793.701 L 595.276,0.03 L 0.029999,0.03 L 0.029999,793.701 z"
         id="path19" /></clipPath></defs><g
     transform="matrix(1.25,0,0,-1.25,-534.15501,110.6975)"
     id="g11"><rect
       width="134.68805"
       height="54.937469"
       x="427.32401"
       y="-88.556"
       transform="scale(1,-1)"
       id="rect2447"
       style="opacity:1;fill:#000000;fill-opacity:1;fill-rule:evenodd;stroke:none;stroke-width:3;stroke-miterlimit:4;stroke-dasharray:none;stroke-opacity:1" /><path
       d="M 514.10996,67.674264 L 507.72096,41.701264 L 518.08696,41.701264 L 524.73196,68.762264 L 514.10996,67.674264"
       id="path35"
       style="fill:#ffffff;fill-opacity:1;fill-rule:nonzero;stroke:none" /><path
       d="M 548.28196,68.815264 C 545.19196,69.118264 540.37096,68.166264 537.98896,66.350264 C 537.93396,67.343264 537.75196,68.124264 537.53996,68.924264 L 528.36496,67.800264 C 528.72996,65.237264 528.36996,62.394264 527.46896,58.568264 L 523.35796,41.701264 L 533.72396,41.701264 L 537.96696,58.911264 C 539.00596,60.403264 540.65696,61.402264 542.05296,61.402264 C 543.77996,61.402264 544.20096,60.136264 543.66596,58.061264 L 539.68196,41.701264 L 550.04896,41.701264 L 554.49696,59.469264 C 555.55796,64.285264 553.99496,68.254264 548.28196,68.815264"
       id="path37"
       style="fill:#ffffff;fill-opacity:1;fill-rule:nonzero;stroke:none" /><path
       d="M 526.43296,76.094264 C 526.43296,78.880264 523.99996,81.150264 520.88896,81.150264 C 517.71996,81.150264 515.11796,78.880264 515.11796,76.094264 C 515.11796,73.309264 517.66396,71.037264 520.71896,71.037264 C 523.88596,71.037264 526.43296,73.309264 526.43296,76.094264"
       id="path39"
       style="fill:#ffcb04;fill-opacity:1;fill-rule:nonzero;stroke:none" /><path
       d="M 501.57296,68.482264 L 498.29596,60.904264 C 497.08396,58.057264 496.01996,55.376264 495.08696,52.746264 L 494.95996,68.482264 L 485.60496,68.482264 L 477.85596,52.614264 L 478.69396,68.845264 L 468.38796,67.560264 L 470.47296,41.701264 L 479.58796,41.701264 C 479.58796,41.701264 486.50296,55.653264 487.12196,57.268264 L 487.21496,41.701264 L 496.56696,41.701264 L 511.99996,68.482264 L 501.57296,68.482264"
       id="path47"
       style="fill:#ffffff;fill-opacity:1;fill-rule:nonzero;stroke:none" /><path
       d="M 457.22796,69.157264 C 454.53596,69.157264 452.52096,68.451264 451.33496,67.790264 C 453.02996,73.046264 453.40796,77.898264 453.40796,77.898264 L 453.40696,77.897264 C 453.47996,78.685264 453.49696,79.622264 453.47596,80.240264 L 442.61196,78.919264 C 442.73496,77.176264 442.47896,74.420264 441.08196,68.533264 L 435.83896,46.839264 C 435.60096,45.801264 435.00596,43.829264 434.52896,43.102264 C 437.80596,42.012264 441.55896,41.026264 447.75496,41.026264 C 451.15096,41.026264 453.83196,41.650264 456.57296,43.259264 C 461.27896,46.009264 464.18496,50.961264 465.38696,55.766264 C 467.63596,64.748264 463.95996,69.157264 457.22796,69.157264 z M 454.48696,55.299264 C 453.29596,50.317264 451.74596,48.085264 449.12496,48.085264 C 448.05296,48.085264 447.15896,48.345264 446.68296,48.708264 L 449.54196,60.593264 C 450.07896,61.060264 451.03196,61.891264 452.58096,61.891264 C 454.90396,61.891264 455.73796,60.593264 454.48696,55.299264"
       id="path49"
       style="fill:#ffffff;fill-opacity:1;fill-rule:nonzero;stroke:none" /></g></svg>