<?xml version="1.0" encoding="utf-8"?>
<!-- Generator: Adobe Illustrator 25.3.1, SVG Export Plug-In . SVG Version: 6.00 Build 0)  -->
<svg version="1.1" id="Layer_1" xmlns="http://www.w3.org/2000/svg" xmlns:xlink="http://www.w3.org/1999/xlink" x="0px" y="0px"
	 viewBox="0 0 360 96.5" style="enable-background:new 0 0 360 96.5;" xml:space="preserve">
<style type="text/css">
	.st0{fill:#00CCBC;}
</style>
<path class="st0" d="M131.5,72.3h8.2l-1.4-6.4v-38h-7.9v17.3c-2.4-2.7-5.6-4.3-9.4-4.3c-7.9,0-13.9,6.5-13.9,16
	c0,9.5,6.1,16,13.9,16c3.9,0,7.3-1.7,9.6-4.5L131.5,72.3L131.5,72.3z M286.7,49.4c1.6,0,3.1,0.4,4.4,1.4l3.7-8.4
	c-1.7-1.1-3.7-1.5-5.7-1.5c-3.5,0-6.5,1.6-8.4,4.6l-0.8-3.9h-8.1l1.3,6v24.7h7.8V52.7C282.1,50.7,284.1,49.4,286.7,49.4L286.7,49.4
	L286.7,49.4z M309.7,64.7c-4.5,0-7.9-3-7.9-7.7c0-4.8,3.4-7.7,7.9-7.7c4.6,0,7.9,3,7.9,7.7C317.6,61.6,314.3,64.7,309.7,64.7
	L309.7,64.7z M114.7,56.9c0-4.8,3.4-7.7,7.9-7.7c4.6,0,7.9,3,7.9,7.7c0,4.7-3.3,7.7-7.9,7.7C118.1,64.7,114.7,61.6,114.7,56.9z
	 M344.5,64.7c-4.5,0-7.9-3-7.9-7.7c0-4.8,3.4-7.7,7.9-7.7c4.6,0,7.9,3,7.9,7.7C352.4,61.6,349.1,64.7,344.5,64.7z M158.8,48.7
	c4.1,0,6.7,1.9,7.6,5.4h-15.1C152.1,50.6,154.7,48.7,158.8,48.7L158.8,48.7z M252.7,48.7c4.1,0,6.7,1.9,7.6,5.4h-15.1
	C246,50.6,248.7,48.7,252.7,48.7L252.7,48.7z M214.4,72.3H227l8.2-30.7h-8.6l-6,24.9l-6-24.9h-8.4L214.4,72.3L214.4,72.3z
	 M194.1,72.3h7.8V41.6h-7.8V72.3z M160,72.8c4.4,0,8.7-1.2,12.3-3.5l-3-6.8c-2.8,1.5-6,2.4-9.2,2.4c-4.1,0-7-1.6-8.3-4.6h22.1
	c0.2-1.1,0.4-2.3,0.4-3.6c0-9.5-6.6-15.9-15.3-15.9c-8.9,0-15.3,6.4-15.3,16C143.6,66.6,150,72.8,160,72.8L160,72.8z M360,56.9
	c0-9.5-6.6-16-15.5-16c-8.9,0-15.5,6.5-15.5,16c0,9.5,6.6,16,15.5,16C353.4,72.9,360,66.4,360,56.9L360,56.9z M253.7,72.9
	c4.4,0,8.7-1.2,12.3-3.5l-3-6.8c-2.8,1.5-6,2.4-9.2,2.4c-4.1,0-7-1.6-8.3-4.6h22.1c0.2-1.1,0.4-2.3,0.4-3.6
	c0-9.5-6.6-15.9-15.3-15.9c-8.9,0-15.3,6.4-15.3,16C237.3,66.7,243.8,72.9,253.7,72.9L253.7,72.9L253.7,72.9z M309.7,72.9
	c8.9,0,15.5-6.5,15.5-16c0-9.5-6.6-16-15.5-16s-15.5,6.5-15.5,16C294.2,66.4,300.8,72.9,309.7,72.9L309.7,72.9z M179.2,72.3h7.9
	V27.9h-7.9V72.3z M198.1,37.3c2.8,0,4.9-2.1,4.9-5s-2.1-5-4.9-5c-2.8,0-5,2.1-5,5S195.2,37.3,198.1,37.3L198.1,37.3z M63.2,0
	l-4.5,42.5L51,6.7l-24,5.1l7.7,35.9L0,54.9l6.1,28.6l60.9,12.9L81,65.3l6.6-62.8L63.2,0L63.2,0L63.2,0z M43.9,61.7
	c-1.3,1.1-2.9,1-4.7,0.5c-1.8-0.6-2.5-2.7-1.9-5.3c0.5-1.9,2.8-2.2,4-2.2c0.4,0,0.9,0.1,1.3,0.3c0.8,0.4,2.2,1.2,2.5,2.4
	C45.6,59.1,45.2,60.6,43.9,61.7L43.9,61.7L43.9,61.7L43.9,61.7z M61.6,63.7c-0.9,1.6-3.3,1.8-5.7,0.6c-1.6-0.8-1.6-2.7-1.4-3.9
	c0.1-0.7,0.4-1.3,0.8-1.8c0.6-0.7,1.5-1.6,2.6-1.7c1.8,0,3.3,0.7,4.2,2.2C62.9,60.5,62.5,62.1,61.6,63.7L61.6,63.7z"/>
</svg>
