<?xml version="1.0" encoding="utf-8"?>
<!-- Generator: Adobe Illustrator 25.3.1, SVG Export Plug-In . SVG Version: 6.00 Build 0)  -->
<svg version="1.1" id="Layer_1" xmlns="http://www.w3.org/2000/svg" xmlns:xlink="http://www.w3.org/1999/xlink" x="0px" y="0px"
	 viewBox="0 0 2279.4 867.8" style="enable-background:new 0 0 2279.4 867.8;" xml:space="preserve">
<style type="text/css">
	.st0{fill-rule:evenodd;clip-rule:evenodd;fill:#922B3F;}
	.st1{fill-rule:evenodd;clip-rule:evenodd;fill:#EEBD31;}
	.st2{fill-rule:evenodd;clip-rule:evenodd;}
	.st3{fill-rule:evenodd;clip-rule:evenodd;fill:#A5333A;}
</style>
<g>
	<path class="st0" d="M944.4,504.4v-7c-26.2-1-33.4-5.9-33.4-34.6v-78.3h111.7v78.3c0,27.3-5.9,33.6-33.1,34.6v7h100.5v-7
		c-28.1-1-33.7-6.6-33.7-34.6V305.8c0-29.4,7.8-34.2,33.7-35.7v-7H989.6v7c28.4,1.4,33.1,7.3,33.1,35.7v64H911v-66.1
		c0-28.3,10-32.1,33.4-33.5v-7H843.9v7c28.7,1.4,33.4,7,33.4,34.6v158c0,28.3-6.5,33.6-33.4,34.6v7H944.4z M1214.3,310l41.2,100.3
		h-81.8L1214.3,310z M1135.4,461.4c-3.4,8.4-9.4,25.1-16.2,30.1c-5.3,3.9-11.2,5.6-17.5,5.9v7h71.5v-7h-2.5
		c-19.7-0.4-22.5-7.3-22.5-14.7c0-9.8,15.9-46.2,19.4-57.7h93.9c4.4,12.9,21.5,45.4,21.5,57.3c0,6.6-4,14.7-21.8,15h-3.1v7h92.1v-7
		c-11.2,0-18.4-4.2-24-11.9c-3.7-5.5-6.8-11.3-9.4-17.5l-87.1-208.3h-7.8L1135.4,461.4L1135.4,461.4z M1361.9,504.4h179.4l19-61.9
		l-7.5-1.4c-13.1,33.2-28.7,48.6-62.1,48.6h-44.6c-18.4,0-19-11.5-19-31.1V308.6c0-31.8,4.4-37.4,33.1-38.5v-7h-98.3v7
		c28.4,1.8,31.5,10.5,31.5,38.5V454c0,38.1-6.3,40.9-31.5,43.3L1361.9,504.4L1361.9,504.4L1361.9,504.4z M1773,260h-6.3
		c-2.5,26.6-29-2.5-71.8-2.5c-66.2,0-117.3,53.5-117.3,128.6c0,82.5,55.9,123.7,117.9,123.7c21.9,0,58-7.7,88.3-54.9l-5.3-5.6
		c-19.7,27.3-43.7,47.5-80.2,47.5c-49.6,0-82.7-44-82.7-116.4c0-55.2,25.9-110.1,82.4-110.1c37.4,0,65.5,27.3,73.9,67.5h6.3
		L1773,260z M1915.3,497c-58.1,0-75.8-58.4-75.8-116.4c0-57.7,22.5-110.1,75.8-110.1c53,0,75.5,52.4,75.5,110.1
		C1990.8,438.7,1973,497,1915.3,497z M1915.3,257.6c-65.8,0-113.9,51.7-113.9,128.3c0,73.4,49.3,124.1,113.9,124.1
		c64.3,0,113.6-50.7,113.6-124.1C2028.9,309.3,1980.8,257.6,1915.3,257.6z M2201.4,263.2v7c23.4,0,32.5,5.6,32.5,33.2v131.8
		l-131.1-172h-55.3v7c18.1,1.1,31.5,19.2,33.4,29.4v148.9c0,35.3-0.6,47.2-30.6,48.9v7h76.5v-7c-29.3,0-31.8-9.4-31.8-48.9V311.1
		l147.6,193.3h5.3V304.8c0-22,2.8-34.6,31.5-34.6v-7L2201.4,263.2L2201.4,263.2L2201.4,263.2z M1299.6,570.5c2.5-5,7.8-17.8,13-20.2
		c1.6-0.7,3.5-1,5.1-1.3v-2.5h-29.4v2.5c7.2,0.4,10.5,1.9,10.5,4.5c0,2.6-1.5,6.4-3.8,11.6l-24.1,48.3l-20.1-41.1
		c-0.4-0.9-8.2-16.7-8.2-18.3c0-4.9,7.8-4.9,11.6-4.9v-2.5h-41.2v2.5c4.7,0,9,2.1,11.3,5.6c5.6,8.4,9.6,17.3,14,26.1l26.7,53.5h2.1
		L1299.6,570.5L1299.6,570.5z M1357.1,549c11.1,0,15,2,15,12.3v54.9c0,11.9-2.9,14-15,14.3v2.5h44.8v-2.5
		c-11.8-0.3-14.8-2.5-14.8-13.6v-55.5c0-10.4,4-12.4,14.8-12.4v-2.5h-44.8V549z M1493.4,563.3l18.3,36h-36.3L1493.4,563.3z
		 M1458.4,617.6c-1.5,3-4.2,9-7.2,10.8c-2.3,1.4-5,2-7.8,2.1v2.5h31.7v-2.5h-1.1c-8.7-0.1-10-2.6-10-5.3c0-3.5,7.1-16.5,8.6-20.7
		h41.7c1.9,4.6,9.5,16.3,9.5,20.6c0,2.4-1.8,5.2-9.7,5.4h-1.4v2.5h40.9v-2.5c-5,0-8.2-1.5-10.7-4.3c-1.6-1.9-3-4-4.2-6.3l-38.6-74.8
		h-3.5L1458.4,617.6z M1648.5,546.5h-44.7v2.5c12.6,0.5,15,2.6,15,14.4v54.3c0,7.4-0.4,12.7-6.3,12.7c-3.7,0-5-2.9-6.5-5.8
		c-1.5-2.9-3.3-5.8-8.6-5.8c-3.5,0-6,1.9-6,5.1c0,8.3,10.4,11,17.7,11c19.1,0,24.5-13.7,24.5-27.8v-42c0-12.8,0.4-15.7,14.7-16.2
		L1648.5,546.5L1648.5,546.5L1648.5,546.5z M1689,549h1.2c11.5,0,13.3,4.3,13.3,13.8v57.9c0,7.1-6,9.8-14.5,9.8v2.5h84.7l7.5-21.2
		l-2.6-0.9c-3.6,9.9-11.4,16.8-23.9,16.8h-29.2c-6.4,0-6.9-2.6-6.9-10.5V590h29.2c9.4,0,12.6,3.6,13.4,12.2h2.8v-29.6h-2.8
		c-1,8.7-3.9,12.2-13.4,12.2h-29.2v-24.2c0-7.3,0-8.8,6.2-8.8h26.3c11.5-0.4,17.4,3.2,19,13.7h2.8l-1.2-18.9h-82.6L1689,549
		L1689,549L1689,549z M1830.5,634.2h2.7c0.3-1.9,2.1-2.8,3.7-2.8c2.6,0,13.2,3.6,23.2,3.6c16.6,0,29.5-10.6,29.5-24.5
		c0-12.3-12.2-20.2-24.7-26.6c-15.2-7.9-24.8-13.2-24.8-21.3c0-7.8,6.9-13.5,15.5-13.5c14,0,22.6,10.9,26.2,22.1h3.1l-3.2-25.8h-2.8
		c0.4,2,0,3.1-2.4,3.1c-6,0-9.8-4-20.8-4c-15.3,0-27.9,8.9-27.9,23.5c0,11.4,10.5,17.3,26.7,27.3c12.6,7.8,20.6,13.9,20.6,20.9
		c0,8.6-8.3,14.2-18.1,14.2c-15.1,0-23.8-11.9-29.4-23h-2.8L1830.5,634.2L1830.5,634.2z M765.1,574.4h446.8v17.3H765.1L765.1,574.4
		L765.1,574.4z"/>
	<path class="st0" d="M572.6,0L0,669.2h815L296.5,531.9L572.6,0z"/>
	<path class="st1" d="M747.9,644.1l-307-79.2c3.1-9.4,11.6-17.7,17.8-23c2-1.7-3.7-1.5-6.2-0.5c-9.6,3.7-19.7,14.6-29.9,18.2
		c-4.5,1.6-16.9-3.2-21.4-18.2c-1.6-5.3-6.6-7.2-6.8-12.9c-0.3-15.8,32-40.6,42.8-47.7c8.7-5.7,38.1-26.1,67.2-41.4
		c-11.9,0.6-50,20.2-60.7,27.7c-9.2,6.5-26.7,21.3-32.7,17.6c-6.9-4.2-15.5-9.8-19.3-16.5c-3.3-5.8,3.4-10.1,6.7-15.8
		c20.7-24.2,26-31,50-51.7c6.5-5.6,23.5-20.3,28.9-24.4c12.4-9.1,16.6-12.2,26.8-19.9c-1.9-0.7-1.2-1.4-3.3-0.8
		c-20.7,5.8-45.6,20.6-53.6,24.4c-1.1,0.5-5.4-4.8-7.3-7.5c1.9-1.6,21.4-12.3,21.4-12.3c7.9-3.4,12.8-7.5,20.7-10.9
		c17.3-9.1,29.9-13.4,48-20.7c13-5.3,24.8-10.7,34.7-11.8c8.6-0.9,12.5,7.3,16.4,14.7c3.1,5.9,4.6,9.7,6.5,15.8
		c1.2,3.9-9.9,7.7-17.5,10.8c-15.8,6.4-41.1,19.8-52.4,31.6c4.7-1.6,20.8-8.4,29.4-11.1c23.1-6.9,36.5-10.9,60.7-15.7
		c15.6-3.1,29.8-5.9,46.7-6.5c8.1-0.2,29.9,25.8,28,38.2c-0.1,0.6-7,2.6-13.6,6.6c-6.3,3.8-17,14.5-19.6,22.7
		c2.2,0.7,22.6-7.4,45.7-12.8l9.9-1.3c10.4,0.9,23.2,8.8,27.8,13.7c5.1,5.4,9.2,9,11.5,17.1c0.3,1.1-14.1,8.9-21.7,15.6
		c-7.9,7-12.8,10.2-20.3,18.2c-7,7.5-13,13.4-17.9,21.8c30.3-6.8,47.2-12.7,76.9-18.1c2.6-0.5,1.8-1.7,4.4-1.7
		c8.4,0,12.1,8.8,15.4,15.1c3.4,6.4,3.4,15,3.6,21.3c0.1,1.3-19.1,13.1-30.4,21.4c1.4,3.6,11.7-2.2,15.7-2.2c7.2,0,6.3-3.2,13.5-3.2
		c1.8,10.5-2.8,27.7-2.8,33.6l-2.9,13.5C768.2,618,755,634.7,747.9,644.1L747.9,644.1z M470.2,673.8c20.6,12.3,43.9,26.1,75.9,36.8
		c22.9,7.6,51.5,10.6,69.5,11c22.6,0.5,46.2-3.7,65.8-13.2c13.7-6.6,36.5-21.5,48.1-34.7L470.2,673.8L470.2,673.8z"/>
	<path class="st0" d="M1910.9,577h362.2v20.2h-362.2V577z"/>
	<path class="st2" d="M141,682.7c-3.4-2.4-7.5-3.7-11.7-3.6c-11.2,0-20.4,8.7-20.4,19.4c0,10.6,9.3,19.1,20.4,19.1
		c4.2,0,8.3-1.3,11.7-3.7v-5.1c-3.2,3.1-7.4,4.8-11.8,4.9c-8.8,0-15.8-7.2-15.8-15.4s7-15.4,15.8-15.4c4.5,0,8.8,1.9,11.9,4.9V682.7
		L141,682.7z M149.1,679.7h-4.3v37.2h4.3V679.7z M183.3,682.7c-3.4-2.4-7.5-3.7-11.7-3.6c-11.2,0-20.4,8.7-20.4,19.4
		c0,10.6,9.3,19.1,20.4,19.1c4.1,0,8.3-1.3,11.7-3.7v-5.1c-3.2,3.1-7.4,4.8-11.8,4.9c-8.8,0-15.9-7.2-15.9-15.4s7-15.4,15.8-15.4
		c4.5,0,8.8,1.9,11.9,4.9L183.3,682.7L183.3,682.7L183.3,682.7z M191.3,679.7H187v37.2h15.1v-3.9h-10.8L191.3,679.7L191.3,679.7z
		 M224.4,699.3c4.8-0.2,8.3,2.2,8.3,7c0,4.1-3.3,7.4-7.5,7.4c-0.1,0-0.1,0-0.2,0c-3.9,0-7.3-2.7-7.5-6.5h-4.2
		c0.1,6.2,5.3,10.3,11.6,10.3c6.7,0,12.1-4.5,12.1-11.1c0-3.8-1.8-7.5-5.6-9.1c3.1-1.5,5-4.7,5-8.1c0-6.1-4.8-10.2-11.1-10.2
		c-6.4,0-10.2,3.9-10.8,9.8h4.3c0.4-3.5,2.5-6,6.4-6c4.1,0,6.8,2.6,6.8,6.5c0,4.7-3.6,5.9-7.7,6L224.4,699.3L224.4,699.3
		L224.4,699.3z M262.6,683.6l-22.2,32.1l3.4,1.9l26.2-37.9h-28.8v3.9H262.6L262.6,683.6z M267,703.2v3.7h10.6v-3.7H267z
		 M301.6,679.1c-9.9,0-14,11.6-14,19.3c0,9.2,5.1,19.2,14,19.2c8.9,0,14-10,14-19.2C315.6,690.7,311.5,679.1,301.6,679.1z
		 M301.6,682.9c7.4,0,9.7,10.4,9.6,15.7c-0.1,5.2-2.4,15.1-9.6,15.1c-7.2,0-9.5-9.9-9.6-15.1C291.8,693.3,294.2,682.9,301.6,682.9z
		 M327.9,699.3c4.8-0.2,8.3,2.2,8.3,7c0,4.1-3.3,7.4-7.5,7.4c-0.1,0-0.1,0-0.2,0c-3.9,0-7.3-2.7-7.5-6.5h-4.2
		c0.1,6.2,5.3,10.3,11.6,10.3c6.7,0,12.1-4.5,12.1-11.1c0-3.8-1.8-7.5-5.6-9.1c3.1-1.6,5-4.7,5-8.1c0-6.1-4.8-10.2-11.1-10.2
		c-6.4,0-10.2,3.9-10.8,9.8h4.3c0.4-3.5,2.6-6,6.4-6c4.1,0,6.8,2.6,6.8,6.5c0,4.7-3.6,5.9-7.7,6L327.9,699.3L327.9,699.3
		L327.9,699.3z"/>
	<path class="st3" d="M88.1,841.8H26.3v-77.2h20.2v63.1h41.6V841.8z M163.7,838c-4.8,2.7-11.5,4.8-16.2,4.8c-5.7,0-8.5-1.7-9.6-5.9
		c-6.7,4.3-12.1,5.9-18.1,5.9c-8.8,0-15.4-6.3-15.4-12.8c0-12.5,9.6-15,32.6-21.7c0.4-4.9-2-8.7-9.5-8.7c-6.9,0-14.7,3.4-20.2,8.7
		v-13.4c7.2-4.2,15.4-6.4,23.8-6.3c13.8,0,23.2,4.4,23.2,15.9v23.8c0,2.6,1.1,3.6,2.9,3.6c1.2,0,2.5-0.2,6.5-3L163.7,838L163.7,838
		L163.7,838z M137,816.5c-10.2,3.5-15.1,5.8-15.1,11c0,3.1,2.5,5.6,5.6,5.6c0,0,0,0,0,0c3.2,0,6.7-1.5,9.5-4V816.5z M255.8,789.5
		v11.2H248v41h-17.2v-41h-7.9v-11.2h7.9v-2.6c0-15.4,10.1-23.4,24-23.4c3.3,0,7.8,0.7,10.5,1v13.3c-2.6-0.4-5.1-0.6-7.7-0.7
		c-5.4,0-9.5,2.3-9.5,9.2v3.3L255.8,789.5L255.8,789.5L255.8,789.5z M314.4,815.2c0,11.4-4.3,17.8-12.4,17.8
		c-6.5,0-12.6-4-12.6-17.4c0-11.8,5.1-17.3,12.6-17.3C310.7,798.3,314.4,805.1,314.4,815.2z M332.8,815.7c0-20-17.4-27.2-30.8-27.2
		c-16.2,0-31.1,9.3-31.1,27.1c0,16.4,13.1,27.2,31.1,27.2C314.2,842.8,332.8,836.4,332.8,815.7z M372.2,804.5h0.2
		c5.1-10.9,10.8-16,17.5-16c3.4,0,6.4,1.2,11.4,4.8l-4.8,14.5c-4.5-2.7-7.5-3.9-10.2-3.9c-6.3,0-10.3,5.7-14.1,15.3v22.5H355v-52.2
		h17.2V804.5L372.2,804.5z M435.5,796.2c3-2.6,6.1-4.5,9.2-5.9c3.2-1.2,6.4-1.8,9.9-1.8c9.5,0,15.9,3.6,19.7,11.1
		c7.1-7.8,13.4-11.1,21.6-11.1c12.5,0,21.4,7.8,21.4,19.7v33.5h-17.3v-30.6c0-7.5-3.8-11.7-10.1-11.7c-5,0-9.6,3-13.6,8.8v33.4
		h-17.2v-30.9c0-8.5-5.4-11.3-10.5-11.3c-4.5,0-9,2.5-13.2,7.3v35h-17.2v-52.2h17.2L435.5,796.2L435.5,796.2L435.5,796.2z M598,838
		c-4.7,2.7-11.5,4.8-16.2,4.8c-5.7,0-8.4-1.7-9.6-5.9c-6.7,4.3-12.1,5.9-18.1,5.9c-8.8,0-15.3-6.3-15.3-12.8
		c0-12.5,9.6-15,32.6-21.7c0.3-4.9-2-8.7-9.5-8.7c-6.9,0-14.8,3.4-20.2,8.7v-13.4c7.2-4.2,15.4-6.4,23.8-6.3
		c13.8,0,23.2,4.4,23.2,15.9v23.8c0,2.6,1.1,3.6,2.9,3.6c1.2,0,2.5-0.2,6.5-3L598,838L598,838z M571.3,816.5
		c-10.2,3.5-15.1,5.8-15.1,11c0,3.1,2.5,5.6,5.6,5.6c0,0,0,0,0,0c3.2,0,6.7-1.5,9.5-4V816.5z M680.8,796.2c2.7-2.4,5.8-4.4,9.2-5.9
		c3.2-1.2,6.4-1.8,9.9-1.8c9.5,0,15.9,3.6,19.7,11.1c7.1-7.8,13.4-11.1,21.6-11.1c12.5,0,21.4,7.8,21.4,19.7v33.5h-17.2v-30.6
		c0-7.5-3.8-11.7-10.1-11.7c-5,0-9.6,3-13.6,8.8v33.4h-17.2v-30.9c0-8.5-5.4-11.3-10.5-11.3c-4.5,0-9,2.5-13.2,7.3v35h-17.2v-52.2
		h17.2L680.8,796.2L680.8,796.2L680.8,796.2z M811,781.7h-8.8l8.8-16.5h19.6L811,781.7z M843.3,838c-4.8,2.7-11.6,4.8-16.2,4.8
		c-5.7,0-8.4-1.7-9.6-5.9c-6.7,4.3-12.1,5.9-18.1,5.9c-8.8,0-15.3-6.3-15.3-12.8c0-12.5,9.6-15,32.6-21.7c0.4-4.9-2-8.7-9.5-8.7
		c-6.9,0-14.8,3.4-20.2,8.7v-13.4c7.2-4.2,15.4-6.4,23.8-6.3c13.8,0,23.2,4.4,23.2,15.9v23.8c0,2.6,1.1,3.6,2.9,3.6
		c1.2,0,2.5-0.2,6.6-3L843.3,838L843.3,838z M816.6,816.5c-10.2,3.5-15.1,5.8-15.1,11c0,3.1,2.5,5.6,5.6,5.6c3.2,0,6.7-1.5,9.5-4
		V816.5z M898.2,804c-7.5-4.4-14.9-5.8-18.3-5.8c-2.3,0-6.2,0.4-6.2,4c0,5.8,27.2,6,27.2,23.5c0,10.9-8.1,17-22.4,17
		c-8.8,0-17.2-2.6-19.6-3.9v-11.6c5.6,2.3,11.2,4.4,17.7,4.4c5.1,0,8.3-1.5,8.3-3.9c0-7.6-27.2-6.2-27.2-23.3
		c0-9.6,9.2-16.1,22.7-16.1c6.9,0,12,1.1,17.7,3.9L898.2,804L898.2,804z M986.7,789.5h-17.2v52.2h17.2V789.5z M978,763.5
		c-5.2,0-9.5,4.1-9.5,9.1s4.3,9.1,9.5,9.1c5.2,0,9.5-4.1,9.5-9.1S983.2,763.5,978,763.5z M1028.7,797c5.5-6,10.8-8.5,17.8-8.5
		c8.6,0,20,4.6,20,20v33.2h-17.2v-31.8c0-7.4-3.7-10.4-8.6-10.4c-4.3,0-7.5,2.1-12,8.6v33.7h-17.2v-52.2h17.2V797L1028.7,797z
		 M1130.3,800.8h-20v21.5c0,5.1,3.1,8.4,8.4,8.4c3.6,0,6.9-0.8,11.6-3.1v11.9c-6.1,2.4-10.6,3.3-16,3.3c-11.4,0-21.3-5-21.3-19.6
		v-22.4h-7.8v-3.2l23-24.5h2.1v16.4h20V800.8L1130.3,800.8z M1164.7,809.7c0.7-7.2,5.1-11.4,11.9-11.4c6.7,0,11.2,4.3,11.9,11.4
		H1164.7z M1202.8,825.6c-8.1,5.6-13.4,7.5-20.4,7.5c-10.8,0-17.5-5.4-18.1-14.7h39.4c0.8-19.1-12.4-29.8-28.3-29.8
		c-16.9,0-28.9,11.3-28.9,27.3c0,16.3,12.5,27,31.7,27c4.3,0,14.6,0,24.5-6.9L1202.8,825.6L1202.8,825.6z M1242.7,841.8h-17.2v-77.2
		h17.2V841.8z M1276.3,763.5c-5.2,0-9.5,4.1-9.5,9.1s4.3,9.1,9.5,9.1c5.2,0,9.5-4.1,9.5-9.1S1281.5,763.5,1276.3,763.5z M1285,789.5
		h-17.2v52.2h17.2V789.5z M1324.6,808.8c0-5.3,4.3-9.5,10-9.5c5.9,0,9.9,4.2,9.9,9c0,5.5-4.4,9.9-9.9,9.9
		C1329.1,818.2,1324.6,813.9,1324.6,808.8z M1365.7,789.5H1333c-19.7,0-24.5,12.6-24.5,19c0,9.6,8.3,15.1,15.4,16.1v0.2
		c-3.2,0.7-10,2.2-10,7.7c0,3.8,3,5.8,6.6,6.8v0.2c-12.1,2.9-14.6,8.6-14.6,13c0,6.9,6.2,15.2,29.3,15.2c17.7,0,29-5.4,29-17.6
		c0-2.6-0.8-6.7-4.4-10.1c-9-8.7-30-3.5-30-9.5c0-6.1,15.9-0.7,25.7-10c3-2.8,5-6.8,5-11.5c0-3-0.8-5.6-2.7-8.7h7.8L1365.7,789.5
		L1365.7,789.5L1365.7,789.5z M1348.4,851.5c0,3.5-4.7,6.6-12.4,6.6c-9.2,0-14.2-2.2-14.2-6.1c0-3.9,5-6.2,13.1-6.2
		C1343.5,845.7,1348.4,847.8,1348.4,851.5L1348.4,851.5z M1401.1,809.7c0.7-7.2,5.1-11.4,11.9-11.4c6.7,0,11.2,4.3,11.9,11.4H1401.1
		z M1439.2,825.6c-8.1,5.6-13.5,7.5-20.4,7.5c-10.8,0-17.5-5.4-18.1-14.7h39.4c0.8-19.1-12.4-29.8-28.3-29.8
		c-16.9,0-28.9,11.3-28.9,27.3c0,16.3,12.5,27,31.8,27c4.3,0,14.6,0,24.5-6.9L1439.2,825.6L1439.2,825.6L1439.2,825.6z M1478.7,797
		c5.5-6,10.8-8.5,17.9-8.5c8.5,0,20,4.6,20,20v33.2h-17.2v-31.8c0-7.4-3.7-10.4-8.6-10.4c-4.3,0-7.5,2.1-12,8.6v33.7h-17.2v-52.2
		h17.2L1478.7,797L1478.7,797z M1580.3,800.8h-20v21.5c0,5.1,3.1,8.4,8.5,8.4c3.6,0,6.9-0.8,11.5-3.1v11.9
		c-6.1,2.4-10.6,3.3-15.9,3.3c-11.4,0-21.3-5-21.3-19.6v-22.4h-7.8v-3.2l23-24.5h2.1v16.4h20L1580.3,800.8L1580.3,800.8
		L1580.3,800.8z M1652.8,835.8c-9.9,6.9-20.2,6.9-24.5,6.9c-19.2,0-31.8-10.7-31.8-27c0-16,12-27.3,28.9-27.3
		c15.9,0,29.1,10.7,28.3,29.8h-39.4c0.6,9.3,7.3,14.7,18.1,14.7c6.9,0,12.2-1.9,20.3-7.5L1652.8,835.8L1652.8,835.8z M1638.5,809.7
		c-0.7-7.1-5.2-11.4-11.9-11.4c-6.8,0-11.2,4.2-11.9,11.4H1638.5z M1760.9,827.5c-3.6,3.1-6.5,4.3-10.2,4.3
		c-8.1,0-13.2-6.4-13.2-15.9c0-10.4,5.1-16.4,13.8-16.4c3.1,0,7.1,1.3,9.6,3L1760.9,827.5L1760.9,827.5z M1778.2,764.5h-17.2v27.3
		c-4.4-2.1-9.3-3.3-14.3-3.3c-15.7,0-26.7,11.1-26.7,27.1c0,15.6,10.9,27.2,25.7,27.2c5.8,0,10.4-1.5,15.2-5.2v4.2h17.2
		L1778.2,764.5L1778.2,764.5L1778.2,764.5z M1856,835.8c-9.9,6.9-20.2,6.9-24.5,6.9c-19.3,0-31.8-10.7-31.8-27
		c0-16,12-27.3,28.9-27.3c15.9,0,29.2,10.7,28.3,29.8h-39.4c0.6,9.3,7.3,14.7,18.1,14.7c6.9,0,12.3-1.9,20.3-7.5L1856,835.8
		L1856,835.8L1856,835.8z M1841.7,809.7c-0.7-7.1-5.2-11.4-11.9-11.4c-6.8,0-11.2,4.2-11.9,11.4H1841.7z M1918.7,789.5h18.4
		l11.7,28.8l11.8-28.8h18.3l-25.2,53.3h-9.6L1918.7,789.5L1918.7,789.5z M2014,841.8h-17.2v-52.2h17.2V841.8z M2014.9,772.5
		c0,5-4.3,9.1-9.5,9.1c-5.2,0-9.5-4.1-9.5-9.1s4.3-9.1,9.5-9.1C2010.5,763.5,2014.9,767.6,2014.9,772.5z M2094.8,838
		c-4.7,2.7-11.5,4.8-16.2,4.8c-5.7,0-8.5-1.7-9.6-5.9c-6.7,4.3-12.1,5.9-18.1,5.9c-8.8,0-15.3-6.3-15.3-12.8
		c0-12.5,9.6-15,32.6-21.7c0.4-4.9-2-8.7-9.5-8.7c-6.9,0-14.8,3.4-20.2,8.7v-13.4c7.2-4.2,15.5-6.4,23.8-6.3
		c13.8,0,23.2,4.4,23.2,15.9v23.8c0,2.6,1.1,3.6,2.9,3.6c1.2,0,2.5-0.2,6.5-3L2094.8,838L2094.8,838z M2068.1,816.5
		c-10.2,3.5-15.1,5.8-15.1,11c0,3.1,2.5,5.6,5.6,5.6c3.2,0,6.7-1.5,9.5-4V816.5z M2121.3,763.5c-5.3,0-9.5,4.1-9.5,9.1
		s4.3,9.1,9.5,9.1c5.2,0,9.5-4.1,9.5-9.1S2126.5,763.5,2121.3,763.5z M2130,789.5h-17.2v49.7c0,8.5-2.6,12.7-8.9,13.7l5.5,14.9
		c8.8-0.8,20.7-6.8,20.7-24.6V789.5L2130,789.5z M2183.7,829.1c-2.8,2.5-6.3,4-9.5,4c-3.1,0-5.6-2.5-5.6-5.6c0,0,0,0,0,0
		c0-5.2,4.9-7.5,15.1-11V829.1z M2210.4,828.8c-4,2.7-5.4,3-6.6,3c-1.8,0-2.9-1-2.9-3.6v-23.8c0-11.5-9.4-15.9-23.2-15.9
		c-8.7,0-16.7,2.2-23.8,6.3v13.4c5.5-5.3,13.3-8.7,20.2-8.7c7.5,0,9.9,3.9,9.5,8.7c-23,6.8-32.6,9.3-32.6,21.7
		c0,6.5,6.5,12.8,15.4,12.8c6,0,11.4-1.6,18.1-5.9c1.2,4.2,4,5.9,9.6,5.9c4.6,0,11.4-2,16.2-4.8L2210.4,828.8L2210.4,828.8z
		 M2245.4,804.5h0.2c5.1-10.9,10.8-16,17.5-16c3.4,0,6.4,1.2,11.4,4.8l-4.7,14.5c-4.5-2.7-7.5-3.9-10.2-3.9
		c-6.3,0-10.4,5.7-14.2,15.3v22.5h-17.2v-52.2h17.2L2245.4,804.5L2245.4,804.5L2245.4,804.5z"/>
</g>
</svg>
