<?xml version="1.0" encoding="utf-8"?>
<!-- Generator: Adobe Illustrator 25.3.1, SVG Export Plug-In . SVG Version: 6.00 Build 0)  -->
<svg version="1.1" id="Layer_1" xmlns="http://www.w3.org/2000/svg" xmlns:xlink="http://www.w3.org/1999/xlink" x="0px" y="0px"
	 viewBox="0 0 2367.7 480.8" style="enable-background:new 0 0 2367.7 480.8;" xml:space="preserve">
<style type="text/css">
	.st0{fill-rule:evenodd;clip-rule:evenodd;fill:#CC2136;}
	.st1{fill-rule:evenodd;clip-rule:evenodd;fill:#E7C13A;}
</style>
<g>
	<path class="st0" d="M1263.8,200.3h119.3L1241,480.8h-119.3L1263.8,200.3L1263.8,200.3z M140.2,200.3h119.3L119.3,480.8H0
		L140.2,200.3z M992.5,318.7h40.1c17.3,0,23.7-13.7,23.7-20.9c0-7.3,0.9-20.9-20.9-20.9h-21.9L992.5,318.7z M965.2,374.2
		l-53.7,106.5H792.2l140.2-280.4h182.1c41.9,0.9,61.9,39.2,58.3,80.1c-4.6,41.9-35.5,86.5-93.8,93.8l40.1,106.5h-112.9L965.2,374.2
		L965.2,374.2z M491.7,480.8h244.9l38.2-75.6H648.3l15.5-31.9h125.7l33.7-64.6H696.6l16.4-31.9h125.7l37.3-76.5H631L491.7,480.8z
		 M1540.6,366.9H1476l47.3-62.8L1540.6,366.9z M1571.6,480.8h112l-76.5-280.4h-124.8l-219.4,280.4h128.4l27.3-36.4h143L1571.6,480.8
		L1571.6,480.8z M382.4,276.8h32.8c22.8,0,19.1,38.2-4.6,38.2h-46.4L382.4,276.8z M336.9,366.9h32.8c22.8,0,19.1,38.2-4.6,38.2
		h-46.4L336.9,366.9L336.9,366.9z M301.4,200.3L161.2,480.8h203c58.3,0,107.4-31,119.3-51c11.8-20.9,22.8-61-0.9-75.6
		c29.1-19.1,53.7-45.5,61-77.4c7.3-31.9-8.2-75.6-81.9-75.6L301.4,200.3L301.4,200.3z M2088.7,182.1h-213.1L1962.2,0h212.1
		L2088.7,182.1z M1948.5,480.8h-213.1L1862,212.1h212.2L1948.5,480.8z"/>
	<path class="st1" d="M2069.6,127.5c13.7-7.3,20.9-18.2,20.9-37.3c0-15.5-9.1-31-26.4-31.9c-12.8,0-39.2,1.8-41-29.1
		c0-5.5-1.8-5.5-4.6-6.4c-3.6,0.9-4.5,0.9-4.5,6.4c-2.7,31-29.1,29.1-41.9,29.1c-17.3,0.9-26.4,16.4-26.4,31.9
		c0,19.1,7.3,30.1,20.9,37.3H2069.6z M2010.4,96.5c0,6.4-4.6,10.9-10.9,10.9c-5.5,0-10-4.6-10-10.9c0-5.5,9.1-15.5,11.9-21.9
		c2.7-4.6,8.2-4.6,8.2,1.8L2010.4,96.5L2010.4,96.5z M2025.9,96.5c0,6.4,4.6,10.9,10.9,10.9c5.5,0,10-4.6,10-10.9
		c0-5.5-9.1-15.5-11.8-21.9c-1.8-4.6-8.2-4.6-8.2,1.8L2025.9,96.5L2025.9,96.5z M1982.2,96.5c0,6.4-4.6,10.9-10.9,10.9
		c-5.4,0-10-4.6-10-10.9c0-7.3,7.3-12.7,10.9-18.2c2.7-4.6,7.3-3.6,7.3,1.8L1982.2,96.5z M2054.1,96.5c0,6.4,5.5,10.9,10.9,10.9
		c5.4,0,10-4.6,10-10.9c0-7.3-6.4-12.7-10-18.2c-2.7-4.6-8.2-3.6-8.2,1.8L2054.1,96.5z M1966.8,134h102.7v5.3h-102.7V134z
		 M1975.9,479.8h262.4c71.2,0,129.4-58.3,129.4-129.4v-8.7c0-71.2-52.4-129.4-123.6-129.4h-144.6L1975.9,479.8z M2118.2,183h156.2
		c48.7,0,88.6-39.9,88.6-88.6v-5c0-48.7-39.9-88.6-88.6-88.6h-74.6L2118.2,183z"/>
</g>
</svg>
