<?xml version="1.0" encoding="utf-8"?>
<!-- Generator: Adobe Illustrator 25.3.1, SVG Export Plug-In . SVG Version: 6.00 Build 0)  -->
<svg version="1.1" id="Layer_1" xmlns="http://www.w3.org/2000/svg" xmlns:xlink="http://www.w3.org/1999/xlink" x="0px" y="0px"
	 viewBox="0 0 2426.5 956.6" style="enable-background:new 0 0 2426.5 956.6;" xml:space="preserve">
<style type="text/css">
	.st0{fill-rule:evenodd;clip-rule:evenodd;fill:#2B7563;}
	.st1{fill-rule:evenodd;clip-rule:evenodd;fill:#FFFFFF;}
	.st2{fill-rule:evenodd;clip-rule:evenodd;fill:#A81C22;}
</style>
<g>
	<path class="st0" d="M0,0h2426.5v956.6H0V0z"/>
	<path class="st1" d="M1058.4,698.7c-10.5-0.8-27-7.5-37.5-10.5c-15.8-4.5-25.5-23.3-42.8-15.8c-5.3,2.3-12,7.5-17.3,9
		c-22.6,8.3-46.5,12.7-70.5,12.7l-0.8,0.8c0,9.8-1.5,24,7.5,30v0.8c9,0,17.3-3,25.5-3c6,12,29.3,18,37.5,29.3c0,0.8,1.5,2.2,2.2,3
		v6.8c-9.8,9.8-21,9-30.8,15v0.8H930c-0.8,0.8-3,3-3.8,3c0,10.5,6.8,17.3,11.3,26.3c1.5,0,6,0.8,7.5,0c8.2-3.7,13.5-20.3,19.5-27
		c11.3-12,30-24,44.3-31.5c4.5-2.3,20.3-18.8,24.8-18.8c0-1.5,3-3.7,3.8-4.5c1.5,0,18.8-14.3,18.8-15h1.5v-0.8h1.5h-1.5v0.8h-1.5
		c0,0.8-17.3,15-18.8,15c-0.8,0.8-3.8,3-3.8,4.5c-4.5,0-20.3,16.5-24.8,18.8c-14.3,7.5-33,19.5-44.3,31.5c-6,6.8-11.3,23.3-19.5,27
		c-1.5,0.8-6,0-7.5,0c-4.5-9-11.3-15.8-11.3-26.3c0.8,0,3-2.3,3.8-3h1.5v-0.8c9.8-6,21-5.3,30.8-15v-6.8c-0.8-0.8-2.2-2.3-2.2-3
		c-8.3-11.3-31.5-17.3-37.5-29.3c-8.2,0-16.5,3-25.5,3v-0.8c-9-6-7.5-20.3-7.5-30l0.8-0.8c24,0,48-4.5,70.5-12.7
		c5.3-1.5,12-6.8,17.3-9c17.3-7.5,27,11.3,42.8,15.8C1031.4,691.2,1047.9,697.9,1058.4,698.7L1058.4,698.7z M914.1,287l45.3-228.6
		h171.4c37.9,0,67.5,2.2,88.8,6.7c21.3,4.4,38.4,11.5,51.4,21.3c16.7,13,27.7,29.1,33.4,48.4c5.6,19.2,5.8,42,0.6,68.4
		c-9.2,46.5-30.1,82.3-62.5,107c-32.5,24.8-74.6,37.2-126.5,37.2h-80l-19.3,97.1l1.2-0.3c3.7-1.5,9-6.8,11.3-9
		c13.5-13.5,34.5-17.3,51.8-21c9.8-2.2,20.3-9,30-11.3c9.8-2.2,21.8-1.5,31.5-1.5c0.8,0.8,3,2.2,4.5,3c0,4.5,0,18.8,5.3,21
		c5.2,3,27,0,33.8,0c0,1.5,9,6,10.5,7.5c3,3,6,9,11.3,9.8c15,3,19.5,9,30.8,19.5c0.8,0.8,0.8,2.3,2.3,2.3c3.7,5.3,2.3,12,3.7,18
		c0.7,3.7,6,4.5,8.3,5.3c11.2,4.5,9.8,18,14.3,26.3c3,5.3,12,7.5,15,12.8c1.5,3.7-0.8,22.5,5.2,22.5v5.7c3.6-0.5,7.8-1.4,10.5-1.9
		c37.5-12.7,87.8-32.3,128.3-21c18,5.3,36,9.8,53.3,0c1.5-0.8,5.3-2.2,6.8-2.2c6.8-1.5,17.2,0.8,23.3,2.2l72.8,22.5v0.8h7.5
		c0-6.8-3-9.8-5.2-15c-0.8-1.5-9-12.7-10.5-12.7v-12.7l3.7-3c19.5,0,39,5.2,57-0.8c9.8-3,23.3-2.3,33.8-2.3
		c3.7,3.7,8.3,6.8,11.2,11.2c6,9.8,5.3,21,5.3,33h2.3c0.7,0.8,3,2.3,4.5,2.3c0,0.8,9.8,5.3,11.3,6c0.7,0,4.5,1.5,5.2,1.5
		c14.6,7.3,28.5,17.8,39,30.4h583.2v46h-565.2c-0.1,6.7-1.4,13.4-3.8,19.7c-0.7,2.3-8.2,23.3-10.5,23.3c0,4.5-2.3,9.8-2.3,14.3
		c1.5,0,3.7,1.5,5.2,1.5c0,0.8,0.8,2.2,0.8,3c0.7,0,2.3,0.8,2.3,1.5c5.2,0,21,3.7,26.2,0.8v-0.8c3-1.5,7.5-0.8,9.8-3.7
		c2.2,0,6-0.8,9-0.8c0,9.8,16.5,24.8,20.3,33c0.8,1.5,0.8,5.2,0.8,7.5c-4.5,3-11.3,13.5-16.5,13.5c0,1.5-0.8,4.5-0.8,6
		c8.3,8.3,24,15,28.5,26.3c0.8,2.3,5.2,5.3,6,7.5c6.8,18.8,8.3,41.3,8.3,62.3h3c14.3-14.3,36.8-2.2,53.3-2.2l6.7-6.8
		c10.5,0,16.5,4.5,26.3,6.8c12.8,3,33-4.5,43.5,3.7v0.8c1.5,0,3,0.8,4.5,0.8c5.3,5.3,3,14.3-2.3,18c-0.7,3.7-6.7,11.2-10.5,12
		c-17.3,6-42,0.8-60,3c-18,2.2-39,0-57,3c-9.8,1.5-25.5,3-35.3,0.8c-26.3-6-58.5,1.5-81.8-11.3c-20.3-11.3-38.3-29.3-54-45.8
		c-6.8-7.5-20.3-21.8-22.5-31.5c-1.5-7.5,0-15.8,1.5-23.3c0.8-5.2,3.7-26.3,12.8-26.3c2.3-7.5,7.5-9.8,2.3-18
		c-13.5,0-24.8-1.5-39,2.3c-13.5,3.7-23.3-7.5-35.3-12c-9-3-24-17.3-33-17.3c0-0.8-4.5-3-5.2-3c0,11.3,9,21.8,12.8,31.5
		c4.5,10.5,10.5,24,16.5,33.8c9,13.5,29.3,3.7,42,7.5c1.5,0,6.8,3,8.3,3c0,11.3,4.5,26.3,4.5,39c-1.5,1.5-3.7,3.7-5.2,3.7
		c-13.5,3-41.3,0.8-54.1-4.5c-6-2.3-10.5-11.3-14.2-15l-15.8-14.3l-45.8-37.5c-12-9-24.7-9.8-38.2-15c-9.8-3-18-13.5-27-18
		c-3-1.5-9.8-8.3-12.8-8.3l-0.7-1.5h-1.5c0,21.8-9,40.5-15,60c-4.5,14.3-30,22.5-42,29.3v0.8h-1.5l0.7-0.8c0,0.8-2.2,2.3-3,2.3v0.8
		c-18.8,15.8-42.8,30-60,47.3c0,2.2-0.8,5.2-0.8,7.5c6.8,6.8,20.3,9,27,2.3c13.5-13.5,27.8-6.8,44.3-6.8c1.5-0.8,3.7-3,5.2-3.7
		c7.5-3,22.5,6.8,30,7.5c19.5,3,40.5,2.3,60,5.3c20.3,3,40.5,7.5,60.8,7.5c0,3-15,14.3-17.3,18c-1.5,1.5-6,4.5-8.3,4.5
		c-9,2.3-20.2-3.7-29.3-2.3c-21.8,3.7-46.5,5.3-68.3,2.3c-13.5-1.5-33.8-6-47.3-3c-17.3,3.7-30.8,11.3-49.5,5.3c-21-6.8-36-9-57-1.5
		c-5.2,1.5-12,0.8-17.2,0.8c0-15,7.5-27.8,12.7-40.5c0.8-2.3,3.7-7.5,5.3-9c3.7-4.5,10.5-9,13.5-15c12-22.5,46.5-30.8,58.5-54.8
		c0.7-0.8,0.7-2.2,1.5-3c0-10.5,21-21.8,24.8-32.3c5.2-15-12.8-24.8-12.8-36c-4.5,0-12.8-0.8-17.2,0c-12,3-16.5,22.5-29.3,26.3
		c-5.9,1.5-13.3,1.5-19.3,1.5c-10.4,16.7-47.1,15-64,15c0,0.8-1.5,2.3-2.2,3c0,6,2.2,9.8,4.5,15c15,0,28.5,2.3,42-6.8l0.7-1.5
		l0.8-0.8l0.8-0.8c15,0,27.8,2.2,40.5,11.3v0.8c0.8,0,2.3,1.5,3,1.5l0.7,17.3c-6,3.7-12.7,11.3-18,15.8c-20.2,17.3-51,14.3-75,21
		c-12,3-24.8,3-36.8,3l-8.2-7.5c-12.7-12-9-36.8-15-51.8c-7.5-16.5-40.5-23.3-56.3-23.3c-0.8,0.8-12,5.3-12.8,5.3v-0.8h0.8l-2.3,2.3
		c-0.8,0.8-2.2,3.7-3,4.5c-9.8,6.8-20.3,12.7-30.8,18c-7.5,3.7-15,11.2-22.5,14.3c-23.3,9.8-63,27.8-63,58.5c9,0,19.5,1.5,28.5-1.5
		c22.5-7.5,39,2.3,60,6.8c17.3,3.7,37.5-2.3,54.8,0.8c10.5,1.5,35.3,8.2,39,20.3v8.3c-0.8,3-9,7.5-12,8.3
		c-4.5,1.5-14.3-0.8-18.8-0.8c-29.3-3.7-63,6-91.6-2.3c-23.3-6.8-41.3-6-63.8-2.3c-13.5,2.3-39.8,3.8-51.8-1.5c-0.8,0-1.5-2.3-3-2.3
		c0-18-5.3-40.5-21-48.8c-4.5-2.3-9.8-9.8-12.7-13.5c-4.5-6-15.8-14.3-19.5-19.5l-67.5-16.5h-2.3c-1-0.9-2.4-1.5-3.7-1.5
		c0-0.8-1.5-1.5-2.3-1.5c-3-1.5-7.5-9-9-12.7c-1.5-3-1.5-8.3-2.3-12c-3.7-15.8-12-33.8-16.5-48.8c-2.3-7.5-12.8-12.7-15.8-19.5
		c-1.5-3-8.2-17.3-12-17.3c0-3-8.2-7.5-9.8-9c-2.2-2.3-18.8-14.3-18.8-16.5c-1.5,0-2.3-2.3-3-3h-0.8c-0.1-0.1-0.1-0.1-0.1-0.2H91.9
		v-46h162.9c-0.8-1.2-1.3-2.7-1.4-4.2H250c0-15.1-8.2-35.8-14.4-49.5c-2.7-6.9-11-17.2-8.2-26.2c0.7-2.7,4.8-15.1,9.6-15.1l0.7-1.4
		c19.9-13.8,51.6-12.4,74.3-3.4c4.1,1.4,10.3,5.5,15.1,5.5c4.8-4.8,4.8-11,3.4-17.2c-3.4-20-2.7-43.3-8.2-62.6l-4.8-24.1
		c-0.7-3.4-0.7-8.3-0.7-12.4h-2.1c0-6.9-15.8-3.4-18.6-3.4c-15.8,15.8-26.1,37.8-44.7,50.2c-6.9,4.1-29.6,1.4-35.8-1.4
		c-4.8-2.1-8.9-8.2-14.4-9.6c-6.2-2.1-15.1-4.8-17.9-11.7c-5.5-12.4,5.5-36.5,8.3-48.2l4.1-17.2c6.2-17.2,17.9-34.4,24.8-52.3
		c9.6-24.8,36.5-50.9,55.7-68.8c2.7-2.7,15.8-15.8,15.8-20.6c1.4-0.7,2.7-2.1,3.4-2.7c4.8,0,7.6,0.7,10.3,3.4v1.4l11.7,13.1
		c2.1,0,8.3-0.7,7.6,1.4c7.6,0,15.8-2.1,22,4.1v5.5h18.6c0,3.4-0.7,8.3,2.1,10.3c0,2.7,3.4,6.9,5.5,7.6c5.5,2.1,13.1-11.7,16.5-13.8
		c7.6-4.1,17.9,2.7,24.1,6.2c6.2,3.4,12.4-2.8,17.2-4.8c15.1-6.2,45.4-15.1,55,4.8c11,22.7,33.7,6.2,52.3,13.8
		c2.7,1.4,6.2,4.1,8.9,5.5c18.6,8.2,23.4,26.8,33.7,42.7c2.1,4.1,8.9,16.5,13.1,17.2h9.6c22.7-5.5,46.8-20,70.9-20
		c0,0.7,0.7,1.4,1.4,1.4c0,3.4,0,9.6,1.4,13.1c1.4,4.1,19.3,0,22.7,2.1c11.7,6.2,2.1,33.7,17.9,33.7c0,17.9,14.4,10.3,22,22
		l13.8,21.3c0.7,1.4,3.4,4.8,4.8,5.5c3.4,2.7,8.9,6.2,11.7,8.9c13.8,0,44,1.4,53-11c0.7-0.7,2.1-3.4,2.7-3.4
		c0-3.4,6.9-19.9,8.3-24.1c0.7-2.1,4.1-6.9,5.5-7.6c0-4.8,2.7-10.3,0-15.8c-15.1,0-32.3,10.3-46.8,4.8c-8.3-3.4-11.7-19.9-15.8-26.8
		c-3.4-5.5-5.5-14.4-10.3-19.3c-3.4-4.1-22-16.5-22-22c-3.4-1.4-2.7-10.3,1.4-11.7c17.9-5.5,41.3,4.8,59.2-2.1
		c1.4,0,4.8-2.1,5.5-2.7h2.1c17.2-5.5,37.1-1.4,46.1,16.5c2.1,4.1,2.1,8.9,5.5,12.4c13.8,0,26.8-4.8,40.6-4.8l0.3,1.1
		C908.1,286.7,911.1,286.8,914.1,287L914.1,287z M1056.1,245.7h43c27.9,0,47.2-3.1,57.8-9.3c10.6-6.2,17.5-17.2,20.7-33.1
		c3.2-16,0.9-27.2-6.9-33.4c-7.8-6.2-26.1-9.3-54.7-9.3h-43L1056.1,245.7z M1393.1,475.1h-118.9l87.3-416.6h160l13.1,207.9
		c0.1,2.8,0.3,9.3,0.3,19.4c0.2,10.1,0.4,24,0.7,41.7c5.5-14,10.5-26.1,14.9-36.6c4.4-10.4,8-18.3,10.8-23.6l101.8-208.8h159.7
		L1735.5,475h-118.9l44.1-205.1c2.6-12.5,5.1-24.6,7.8-36.4c2.6-11.8,5.2-24,8-36.6c-9.9,23.7-20.2,47.2-30.8,70.5l-1.6,3.7
		L1550.8,475h-91.6l-9.3-199.4c-0.6-10.4-0.8-20.8-0.7-31.1c0.1-11.6,0.2-27.5,0.6-47.5c-3.3,17.9-6.1,33.3-8.5,46.1
		c-2.4,12.8-4.4,23.1-6.1,30.8L1393.1,475.1L1393.1,475.1z M1848.7,58.4h133.8l-44,256.8c-4.1,23.7-2,40.7,6.2,50.8
		c8.2,10.1,23.8,15.1,47,15.1c22.7,0,39.6-4.9,51-14.9c11.4-9.9,19.2-26.9,23.3-51l43.9-256.8h133.8l-45.7,267.3
		c-8.9,52.3-32.6,92.1-71,119.7c-38.4,27.5-89.5,41.3-153.5,41.3c-64.3,0-111-13.8-140.3-41.4c-29.2-27.7-39.4-67.5-30.5-119.6
		L1848.7,58.4z M1781.7,784.2l0.1,0c-4.5-0.8-15,2.3-18,0.8l-0.7-0.8c-1.5-3,0.7-12,0.7-15c-3.7-3.7-9.8-3-15-3
		c0-1.5-1.5-3.7-1.5-3.7V761l-12,0.8c-3.8,7.5-11.3,14.3-14.3,22.5c-3,6.8,0,15.8,0,22.5l1.5,0.8v1.5l0.8,0.8h2.2
		c0.8-2.3,3.8-5.3,4.5-6.8h1.5c3,6.8,11.3,16.5,20.3,7.5c0-0.8,0.8-1.5,0.8-3c3.7,0,9.8,4.5,12,6.8h1.5c0-0.8,1.5-3,1.5-3.7
		c0.8,0,3-1.5,3.8-2.3c2.2,0,3.7-0.8,6-0.8c0-3.7,6.8-13.5,6.8-20.3C1783.4,784.9,1786.2,784.2,1781.7,784.2L1781.7,784.2z"/>
	<path class="st2" d="M1695.1,566.8l-5.8,17.9c-3.4,8.7-14.5,26.2-24.2,28.1c-12.6,2.9-39.7-6.3-45.6,9.7c0,0.5,0.5,1,0.5,1.5
		c18.9,0,33,5.3,49.4,13.6c0,3.9,8.7,9.7,10.2,13.6c4.8,13.6,19.4,26.2,33.4,31.5c7.8,2.9,15-4.8,19.4-9.2c1.4-1.5,3.9-2.9,5.3-4.4
		c16-16,11.6-46.5,4.4-64.5c-6.8-17-25.7-24.2-37.3-35.9C1701.4,568.8,1697.5,567.3,1695.1,566.8L1695.1,566.8z M1673.7,548.5
		c0-3.3-5.9-7.7-8.2-9.8c-5.9-5.2-17-11.6-24.2-14.1l-24.2-8.2c-8.3-2.4-25.7-6.8-34.4-3.9c-0.5,0-1.4,1-1.9,1.5
		c0,5.3,7.3,14,13.6,14c2.9,4.4,14.5,6.3,16,12.1c1,4.4-1,9.7-2.4,13.1c-9.2,22.8,24.7,31,41.2,24.7c7.3-2.4,23.3-11.1,26.2-19.4
		c1-3.4-0.5-6.8-0.5-9.7L1673.7,548.5L1673.7,548.5z M1483.3,872.6c-9.2-1.5-20.8-0.5-29.6-3.9c-16.5-6.3-34.9-3.9-51.4-8.7
		c-6.3-1.9-14.5-5.3-21.8-3.9c-7.3,1.5-15.5,7.3-23.3,9.2c-9.2,1.9-21.3-4.4-29.6-5.8c-7.3-1.5-28.6,4.4-24.2,15.5
		c0,1,1.9,2.4,2.9,2.9c8.3,4.9,22.8,2.4,32,5.8l8.2,3.9c1,0,2.4,1.5,3.4,1.5c9.7,1.9,17.5-3.9,25.7-6.8c5.3-1.9,12.1-2.4,17.9-2.9
		c25.7-3.4,48,13.6,73.7,7.8c6.3-1,13.1-2.9,17.9-7.8v-4.9C1484.8,874.6,1484.3,874.1,1483.3,872.6L1483.3,872.6z M1358.9,618.8
		c-23.2-1-40-4.4-48.2-4.7l-0.4-0.8h-1.4l-0.5,0.5v0.2c-1.8-0.1-3.7-0.3-5.5-0.6c-1.1-0.2-2.1-0.3-3.2-0.4c1.8-0.9,3.4-1.8,4.8-2.6
		c4.1-2,8.5-3.3,13.1-3.9c11.6-2.4,22.8,2.4,33.9,3.9c13.1,1.9,27.1-0.5,40.2,1.5c3.9,0.5,9.7,1,13.6,0c10.7-2.4,18.4,0.5,28.1,3.9
		c10.7,3.9,21.3,6.8,33,7.8h44.6c0-1.9,1-5.3,0.5-7.3c-4.8-13.6-17.9-25.2-23.7-38.3v-1.4h5.8c1.9,0,5.3,1.9,6.8,2.4
		c4.8,2.4,9.7,8.7,14.1,11.6c6.8,4.9,17.9,8.2,22.3,15.5c4.8,8.2,7.8,32.9,0.5,40.2h-2.4c-2.4-0.5-5.8-2.4-8.2-2.9l-35.9-6.8
		c-15-2.4-32-1.9-47.5-3.9C1415.2,628.8,1387,622.8,1358.9,618.8L1358.9,618.8z M1177,729.8l-1.1,6.4c-3.9,14.4-1.5,29.1-3.1,43.8
		c-0.2,3.5-0.4,8.3,0,11.6c0,1.1,1.1,3.1,1.8,3.9c4.8,6.3,12.3,13.8,19.9,16c0.9,0.2,2.2,0.9,3.1,0.9c6.1,0.9,9.2-2.4,14-4.6
		c14.4-6.8,32.4-2,47.1-9.2c2.4-1.1,5.2-2.4,7.8-2.6c5.7-0.6,12.1-0.4,17.7-1.5c6.8-1.3,14.2-8.5,19.7-12.5c1.8-1.3,3-4.4,2.4-6.6
		c-0.5-1-1.2-2-2-2.8c-5.7-5.7-12.5-10.1-18.2-15.8c-2.8-2.9-5.7-2.6-9.4-2.6c-5,5-2.9,14.9-8.3,20.1c-0.9,0.9-2.8,1.5-4.2,1.8
		l-41.6,8.1c-5,0.9-9.6,4.2-15.1,4.2c-1.8-8.3-1.1-19.3,0.7-27.6c1.8-8.1,3.1-18.2,2-26.7c-0.2-1.3-0.2-5.2-1.3-7
		c20.4,0.2,41.4,2.2,61.3-1.1c30.2-5.4,57.9-29.7,81.8-47.2c0.5-0.5,1.4-1.3,2.5-1.9c0.9,0.1,1.9,0.1,2.8,0.1c0,1,2.4,3.4,2.4,4.4
		c3.9,10.2,1.9,23.7,5.8,33.9c1.5,4.4,5.3,11.1,5.3,15.5c1,0,1-0.5,1.4-0.5c0,3.4-1.4,7.3-2.9,10.2c-0.5,1.4-2.4,3.9-2.9,4.8
		c-3.9,6.3-10.2,12.1-15,17c-16.5,16.5-39.3,30-56.2,47l-2.9,2.9c-1,1.5-3.4,3.9-4.4,5.3c-9.7,14.5-26.7,20.3-33.4,37.3
		c-2.9,7.3-0.5,13.1-0.5,19.9c0.5,0,2.9,2.9,3.9,2.9c16.5,3.9,34.9-6.8,40.7-21.8c4.9-11.6,13.6-30.5,25.7-36.4
		c4.7-2.2,9.1-4.9,13.1-8.2l42.6-37.3c8.3-8.2,15.5-10.2,25.7-13.6c20.8-7.3,18.4-41.2,12.1-57.7c-0.5-2.4-0.5-6.3-0.5-8.7
		c0.5,0,1-0.5,1-1c20.8,0,34.9-16,48.9-28.1l1-1c0-0.5,1.5-1.5,1.5-1.5c0,0.5,0,1,0.5,1c0,9.7-13.1,16.5-17.5,24.2
		c-2.4,4.4-1.9,7.8,0,12.1c1,2.9,5.8,6.8,8.2,8.2l9.7,7.3c17,10.2,36.8,2.9,50.9,17.9c4.4,4.9,7.8,12.1,11.6,17.5
		c13.6,18.4,33.4,32,48.5,49.4c0.5,1,4.4,5.3,5.8,5.3c0,1.5,4.4,4.4,5.3,4.4c8.2,2.4,20.4-1,28.6,1c5.3,1,9.2,0,14.1,0
		c0-0.5,2.4-1.9,2.9-1.9c0-0.5,1.5-1.9,1.9-2.4v-4.4c-5.3-5.3-12.1-11.6-16.5-17.9c-1,0-1.5-1.5-2.4-1.5
		c-10.7-3.4-24.7,1.9-35.4-0.5c-3.4-0.5-6.8-5.8-7.8-8.7c-5.8-15.5-17-32-26.2-45.5c-6.3-9.2-14.5-23.3-24.2-29.1
		c-7.8-4.4-18.4-3.4-25.2-10.2c0-7.8-4.4-16.5-1-24.7h0.5c0-0.5,2.4-3.9,2.4-3.9h1.5c0.5,0.5,1,1,1,1.4h1c0,8.2,9.2,19.9,14.5,25.2
		c9.7,0,17.5-5.3,25.7-9.2c2.4-1,9.7,1.9,10.2,3.4c3.9,1,8.7,5.3,11.6,7.8c5.8,4.9,18.4,11.1,25.7,13.6c0,0.5,1,1.5,1,1.5
		c0.5-0.3,0.9-0.8,1.1-1.6l32.8,21.4c10.2,0,21.8-5.8,31.5-3.9c14.3,3.3,29.3,14.6,44.8,16.4c-8.1,4.1-16.4,10.8-19.6,18
		c-0.5,1.5-2.9,3.4-3.4,5.3c-3.9,13.2-4.4,27.2-1.5,40.7c7.3,32.5,41.2,50.4,67.4,64.5c18.4,9.7,39.2,12.1,60.1,8.7h6.8
		c6.3,1,13.1,6.8,19.4,8.7c12.6,3.9,26.7-2.4,38.3-4.8c17.9-3.9,42.2-0.5,61.1-0.5c4.8-4.8,7.3-10.2,7.3-17
		c-6.8-3.4-19.4-1.5-27.1-1.9c-18.9-1.9-41.2-5.8-60.6-2.4c-8.2,1.5-24.7,18.4-32,4.8c-3.9-6.8,8.7-14,11.6-18.9
		c8.7-15.5,0.5-35.9-7.8-49.4c-10.7-17.4-27.6-33.4-44.6-44.6c-6.8-4.4-13.6-5.3-21.3-5.3c0,0.5-0.5,1-1,1v3.9
		c12.1,12.1,34.4,22.3,40.7,38.8c4.8,13.6,3.9,33.4-1,46.5c0,1-1.4,2.9-1.4,3.9c-8.7,23.7-33,12.1-49.4,4.4
		c-2.9-1.5-7.8-2.4-10.6-4.4c-9.7-5.8-19.4-17.4-25.2-27.1c-13.1-20.8-1.9-45.5,18.4-55.7c6.8-3.4,6.3-7.8,6.3-14.1
		c-1.9-1.4-3.9-4.4-6.3-5.3l-5.7-0.8c10.3-3.3,21.6-4,33.4-3.1c3.4,0,8.2,0,11.6,0.5c10.2,1.9,20.8,5.8,31.5,4.4
		c1.4,0,3.4-0.5,4.8-0.5c0.5,0,2.4-1,2.9-1c0.5,0,2.4-1.9,2.9-2.4c0-11.6-11.1-27.1-24.2-25.2c-22.8,3.4-47.5,1-70.3,4.4h-7.8
		c-6.3-1-13.1-6.8-17.9-10.2c-6.8-4.8-23.3-8.7-27.6-15.5c-0.5-1-1.9-2.9-1.9-4.4c0-1-1-3.4-1.4-4.4c-4.9-13.6-22.8-26.7-35.9-32.5
		c-13.6-5.8-26.6-2.9-39.2,1.9c-1.4-4.6-2.5-9.1-2.5-13.6c0.5,0,1.4-0.5,1.4-0.5l0.5-1c1.9-1,6.8-1,9.7-1c0-8.7,4.8-17.4,4.8-26.2
		c-1.2-0.7-2.2-1.7-2.9-2.9c-2.9,0-6.3-5.8-9.7-5.8c-1.5-1.9-1.9-3.4-1.5-5.8c3.9,0,8.3-4.9,11.6-4.9c0-0.5,0.5-1,1-1.4
		c0-1.5,0.5-4.9,0-6.3c-1-4.4-13.6-6.8-17.5-8.7c-16-7.8-30-19.4-48-24.2c-15-4.4-35.9-6.8-51.9-3.9c-14.1,2.4-23.7,10.2-37.8,3.4
		c-5.2-2.5-10.5-4.6-16-6.3c-17.4-5.3-46-2.9-63.5,1.9l-65.4,18.9c-6.8,1.5-18.4,4.8-25.2,4.8c0,1-0.5,0-0.5,1l-0.5,0.5l-2.9,0.5
		v0.5h-1.9v0.5h-1c0,0.5-3.4,6.3-3.4,7.8c-1,4.4,0,14.1,1,17.9c1.4,4.8,9.7,13.1,9.7,17.9c3.3,0,6.4,2.9,9.8,5.1
		c-24,2.6-47.8,14.9-71.4,14.9c-3.9-8.3,9.2-19.5,15.1-23.4c0-1,0.5-1.5,1-1.9v-5.4c-1.5-1.5-5.8-5.8-7.8-5.8l0.5-25.8
		c8.8-8.8,29.2-1.9,40.4-1.9c1.9-2.9,6.8-5.8,8.3-9.7c3.9-7.8-11.7-15.1-14.6-20.9c0-0.5-1-2.4-1-2.9c-2.4-6.8,0.5-12.7-7.3-16.5
		c-3.9-1.9-9.8-4.9-13.2-8.3c-6.8-6.8-5.8-14.6-15.6-18.5c-4.9-1.9-13.1-8.3-18-8.3c0-8.8,13.1-20.9,2.4-28.2
		c-6.8,0-24.8,1-29.7-3.9l-0.5-11.2c-9.7-9.7-28.2-19-42.4-11.2c-1.5,1-6.8,1.5-7.3,3.4c0-6.8,2.9-11.7,2.9-18.5
		c-4.4,0-8.3,1.5-12.2,2.4c-18,4.4-39.4,6.8-56,15.6c-3.9,1.9-11.2,9.2-11.2,14.6c6.3,2.9,13.6,4.4,18.5,9.2
		c0,15.1-28.2-0.5-35.1,6.3c0,1-0.5,5.4,1,5.4c0,1.5,0.5,3.4,0.5,4.9c-2.4,0-5.4,1-7.8,1c-0.5,0.5-10.7,4.9-12.2,4.9l-0.5,0.5
		c0,0.5-0.5,1-1,1.5v1h-0.5c-1,1.9,2.9,10.2,3.4,12.2c2.9,9.2-1,20.9-1,30.2c26.8,40.4,79.8-8.8,111.5,22.9v1.9
		c-12.2,0-28.7-6.3-40.9-2.4c-0.5,0-1.5,1-1.5,1.5c0-0.5-1.5,9.7-0.5,13.6c1,4.4,3.9,9.3,4.9,13.6c0,1.5,1.5,4.4,1.5,5.8
		c6.8,29.7-9.7,60.9,5.8,89.6c0.5,1,1.9,3.9,1.9,4.9c0.5,2.9,1,6.3,1.9,9.3c0.5,1.5,1.1,2.9,1.7,4.1c-0.4,1.2-0.8,2.2-1.1,2.2
		c-12.2,8.8-26.4,12.7-37.6,23.9c-11.7,11.7-25.8,28.2-39.9,36c-1.5,0.5-4.4,2.9-5.4,3.9c-16.5,14.1-42.8,24.3-52.1,45.8
		c-8.3,19-27.7,30.2-41.4,44.8c-1.5,1.5-6.8,7.8-6.8,9.7c-3.9,1.9-6.3,9.3-6.3,13.6c2.4,0,8.3,3.4,11.2,3.9
		c6.3,1.5,15.1,2.9,21.9,0.5c1,0,1.9-1.9,2.9-1.9c4.4-6.3,8.3-12.2,10.7-19.5c0-1,1.5-3.4,1.9-4.4c1.5-2.9,3.9-6.8,6.3-8.8
		c18.5-16.1,29.2-44.8,53.1-52.1c1.5-0.5,4.4-1.5,5.8-1.5c3.4-1,6.8-1.9,10.2-3.4c7.8-3.9,17-11.7,23.4-17.5
		c7.8-7.3,20-19.5,29.7-22.9l36-14.1c0.5,0,1.5-1.5,2.4-1.5c0.5-1,5.8-3.9,7.3-3.9v-0.3c0.3,0.5,0.6,0.9,1,1.3l-0.5,14.6
		c10.7,3.9,22.9,2.4,32.6,9.2c1,0.5,2.9,2.9,4.4,2.9c2.4-2.4,6.3-9.7,6.3-13.2l1.9-0.5v-0.5C1176.8,729.8,1176.9,729.8,1177,729.8
		L1177,729.8z M972.7,857.8c7.7,5.8,13.7,17,26.8,9.3c8.3-4.9,10.2-7.3,19.5-2.9h1c0,0.5,1.9,1.9,2.4,2.4c4.9,3.4,12.2,6.8,18,7.8
		c16.5,3.9,39.9,3.4,57,1.5c7.8-0.5,18.5-0.5,23.9-5.8c0-1.5,0.5-3.9,0.5-5.8c-3.4-3.4-9.2-5.4-13.6-5.8
		c-20.9-3.4-47.2,3.4-67.2-5.3c-11.2-4.9-31.2-16.5-43.8-9.7c-8.3,4.4-12.2,11.7-23.4,11.7l-1,1L972.7,857.8L972.7,857.8z
		 M1154.8,646c-18.5,0-33.1,16.5-23.9,35h3.4c1.5-2.4,2.9-4.9,2.9-7.8c1.9-12.2,10.2-17,18-24.8v-1.9
		C1154.8,646.5,1153.9,646,1154.8,646z M1178.7,518l-1.9,0.5c-0.5,0.5,0.5,3.4,1,3.4c0,2.4,3.4,3.9,5.4,3.9c0-0.5,0.5-1,1-1.5v-4.9
		l-1-1C1182.1,518.5,1181.1,518,1178.7,518L1178.7,518z M1156.8,467.9l-0.5,4.9c1,1,4.9,4.4,6.3,3.9l0.5-0.5c1-1.5,0.5-5.4,0.5-7.3
		C1161.5,467.7,1159.1,467.4,1156.8,467.9z M1107.9,458.9c-0.2,6.6,3.7,5.6,7.1,8c7.3,5.4,14.6,13.6,22.9,18.5
		c6.8,3.9,18.5,18.5,26.8,18.5c0-1.5,0-3.9-0.5-5.3c-3.4-6.3-13.6-12.2-19-17C1132.9,470.3,1126.1,458.6,1107.9,458.9z M953.3,756.2
		c-3.6-7.3-10.8-7.3-15.9-10.9v-0.7c-2.9-2.2-5.8-4.3-9.4-4.3c0-1.4-3.6-2.9-3.6-5.8h-1.5v-0.7c-1.5-0.7-7.2-0.7-9.4-0.7
		c-4.3,4.3-2.2,19.5-2.2,26c0.7,0,2.9,2.9,3.6,2.9c8.7,2.9,25.3,1.4,34.7,1.4c0.7-0.7,2.2-2.2,2.9-2.2v-1.4L953.3,756.2L953.3,756.2
		z M980.7,555.4c2-2.6,5.9-5.9,8.5-7.8v-0.6c3.3-2.6,10.5-2,14.4-2l0.7-0.7c0-7.8,0.6-16.4-1.3-24.2c-2.6-11.8-11.1-20.9-14.4-31.4
		c-1.3,0-1.3-2-2.6-2.6c-10.5-5.9-32.7,9.2-41.2,13.7c-1.3,0.6-3.3,3.3-3.9,3.9c0,12.4,13.1,33.4,26.2,33.4c0.6,0.7,2.6,2.6,3.9,2.6
		c0,0.6,0.6,1.3,1.3,2c0,3.9,2.6,8.5,2.6,11.1c2.6,0,5.9,3.9,9.2,3.9c0-1.3,2.6-3.9,2.6-4.6L980.7,555.4z M898.2,567.2
		c-10.5-11.8-19-22.2-22.9-38.6c-0.6-2.6-2.6-12.4-7.2-12.4c-0.6-1.3-6.5-2.6-8.5-2c-5.9,3.3-13.1,13.1-17,17.7
		c-1.3,1.3-3.9,8.5-2.6,10.5c12.4,17.7,39.2,24.2,59.5,24.2L898.2,567.2L898.2,567.2z M829.5,621.4c-7.8-7.2-18.3-11.1-29.4-11.1
		l-2,2c0,2-0.7,3.9-0.7,5.9c2.6,0,10.5,3.3,13.1,0.7c6.5,0,13.1,3.9,19.6,3.9C830.2,622.1,830.2,621.4,829.5,621.4L829.5,621.4z
		 M844.6,303.5c-5.2-5.9-13.1-13.1-16.4-19.6c-2.6,0-12.4-9.8-15.7-11.1c-3.6-1.7-7.3-3-11.1-3.9c-8.5-2-24.9-0.6-32.7,0.6
		c-5.9,0.6-13.1-0.6-13.1,8.5c6.5,0,13.7,7.2,20.3,7.2l9.2,24.2c10.5,26.2,38.6,19,57.6,6.5C842.6,314.6,846.6,303.5,844.6,303.5
		L844.6,303.5z M308.1,516.1c-3.9-1.3-6.5-2-10.5-2c-2.6,2.6-3.9,5.9-2.6,9.8c2.6,0,5.9,2,8.5,2c3.3-3.3,3.3-5.9,3.3-10.5
		c-0.7,0-2-0.7-2.6-0.7L308.1,516.1L308.1,516.1z M305.5,567.8c0-8.5-4.6-24.2-9.8-30.8H295l-1.3-2h-7.2l-2,2
		c0,5.9,3.3,11.1,6.5,15.7h0.7c3.9,4.6,4.6,18.3,13.7,18.3v-1.3h0.6L305.5,567.8L305.5,567.8z M738.6,438.9
		c-1.3-5.2-3.9-19-7.2-23.6c-3.9-4.6-11.8-7.8-15-13.7c-3.3-5.2-10.5-8.5-15.7-11.8c-9.2-5.2-15.1-18.3-26.8-18.3l-1.3,1.3v4.6
		c10.5,10.5,27.5,13.7,34.7,27.5c2,3.9,10.5,13.1,15.7,13.1c1.3,3.3,7.2,7.2,8.5,11.1h0.7c1.3,3.3,2,7.2,5.2,10.5L738.6,438.9
		L738.6,438.9z M414.8,344.7c-0.2-2.4-1.1-4.7-2.6-6.5h-0.6c-0.7-0.7-2.6-3.9-4.6-3.9c0-0.7-12.4-11.8-13.7-13.7
		c-3.9-5.9-14.4-6.5-14.4-17c-3.9,0-9.2-6.5-15-6.5c-1.3-1.3-4.6-8.5-7.2-8.5c0-1.3-0.6,0-0.6-1.3c-0.6,0-2-1.3-2.6-2
		c-2,0-3.9-0.7-5.9-0.7c-0.6,1.3-0.6,4.6-0.6,5.9c3.9,14.4,27.5,16.4,35.3,28.8c2.6,4.6,11.1,9.2,13.1,13.7
		c0.6,0,13.7,11.8,13.7,12.4h7.2v-2.6c-0.6,0-2.6-3.3-2.6-3.9c-0.7,0-1.3-0.6-2-0.6L414.8,344.7L414.8,344.7z M468.4,304.1
		c0-9.8,5.2-34,14.4-38.6c0-3.3,5.9-7.8,5.9-11.1c-2,0-3.9-2-5.2-2c-14.4-4.6-32.7,0-46.5-5.2c-7.8-2.6-23.5-7.2-29.4-13.1
		c-2.6,0-9.2-2-11.8-0.7l-0.6,0.7v4.6c2.6,2.6,4.6,7.8,7.2,10.5c3.9,3.9,19.6,14.4,25.5,14.4c3.3,7.2,5.9,16.4,10.5,24.9
		c2.6,5.2,8.5,11.8,15,13.1C455.3,301.5,469.7,300.9,468.4,304.1L468.4,304.1z M828.2,727.3c-9.9-2.2-13.2-11.1-20.2-18.2h-2.6
		c0,5.9-2,13.1-2,19l-1,0c3,2.4,5.3,6.8,6.6,9.1c0.8,1.5,3.8,4.6,3.8,6.5c4.6,3.1,9.2,8,14.5,10.7c7.3,3.8,14.9,0.4,21.8,0.4
		C849.1,743.7,829.5,738.7,828.2,727.3L828.2,727.3z M582.3,367.6v-5.9l-0.6-0.6c-7.8,0-19.6,5.9-26.2,2.6c0-2.6-0.7-6.5-0.7-9.2
		c3.3-3.3,14.4-11.1,17-15.7c2,0,5.9-2.6,7.2-3.3c2.6-1.3,5.9-4.6,9.2-5.2c21.6-7.2,47.1-24.2,70-24.2c0,5.9-8.5,8.5-8.5,14.4
		c5.9,3.9,20.9,3.3,28.1,3.3c0,0.6,3.3,2,3.9,2l3.3,3.3c0,3.9,0.6,18.3,5.2,19.6c9.8,2.6,15,4.6,18.3,14.4c0.7,2.6,2.6,7.2,5.2,8.5
		c2,0.7,5.9,2,7.2,3.3c7.2,5.9,11.1,15.7,17.7,22.2c3.9,3.3,9.8,5.9,11.1,11.1c2,6.5,7.8,15.7,16.4,9.2c10.5-8.5,29.4-1.3,41.9-5.2
		c4.6-1.3,10.5-4.6,15-5.9c7.8-2.6,19.6-12.4,25.5-18.3c19-19,3.9-55,9.8-77.9l1.3-2.6h0.6c2.6-3.3,7.8-7.8,11.8-9.2
		c4.3-1.4,8.7-2.5,13.1-3.3l13.1-2.6c1.3,0,5.2-0.7,6.5-0.7c19.6-2.6,63.5-2,63.5,23.6c-0.6,0-1.3,0.7-2,1.3l-17,0.6
		c-15,3.9-21.6,24.2-33.4,32.1c0,7.2-5.2,19.6-7.8,25.5c-2,5.2-11.8,11.8-15.7,15.7c-11.1,11.1-22.9,22.9-35.3,31.4
		c-10.5,0-34,2-34,15.7c1.3,0.6,9.2,7.8,9.2,9.2c4.6,2,6.5,13.7,8.5,18.3c1.3,3.9,7.9,6.5,11.8,5.9c5.9-1.3,10.5-8.5,16.4-10.5
		c3.3-0.6,11.1-2,15.1-1.3c5.9,1.3,15.7,12.4,19.6,17c11.1,12.4,5.9,34.7,10.5,49.7c2.6,7.8,3.3,17,5.2,24.2h0.6v3.3h0.6v3.3
		c0.7,0,1.3,0,1.3-0.7c14.4,0,29.4,2,43.2,5.2c32.1,7.8,65.4-13.7,97.5-3.9c2.6,0.6,4.6,1.3,7.2,2.6c0,4.6,3.9,9.8,2.6,15
		c-1.3,5.9-13.1,11.1-17,15v3.3c2,2,6.5,7.8,9.8,7.8l3.3,3.9c0,4.6,0,9.2-3.3,12.4c-2.6,2.6-9.2,3.9-9.8,7.8c-1.3,5.2,2,11.1,2,15.7
		h1.3c0-1.3,0.6,0,0.6-1.3c0,2.6,5.9,18.3,9.2,18.3c0,1.3,2.6,2.6,2.6,4.6c3.3,1.3,2,14.4,2,17.7c-0.6,0.7-2,2-2,2.6
		c-12.4,0-23.6-3.9-34.7-7.8c-13.7-4.6-29.4-2.6-42.5-9.8c-16.4-8.5-28.8-11.8-45.8-2.6c-26.2,14.4-51,18.3-80.5,18.3
		c-2.6,5.2-0.6,19.6,5.2,22.2c0,3.3,7.2,11.8,9.8,14.4c0,0.6,0,1.3,0.6,1.3c0,0.7,0.7,3.3,0.7,3.9h0.6c0.6,1.3,0,5.9,2,5.9v2h-1.7
		c0.2,1.8,0.7,4.1,0.7,5.3c2.7,2.7,6.5,3.1,10.3,3.1c2.7,8-4.2,11.1-4.2,18.4c1.9,0.8,7.3,3.4,9.6,3.4l9.2,11.5
		c0.4,0.8-0.8,3-0.8,3.4c-4.2,6.9,0.8,10.7,6.5,14.5c0,2.3,1.9,8,2.7,10.3c1.2,4.2,11.5,14.2,6.5,19.1c-2.3,2.3-8.4,2.3-11.1,1.9
		c-13.8-2.7-24.1-13.4-32.5-23.3c-4.6-5-5.4-8.8-12.6-10.3c-4.6-0.8-5.7-7.3-9.6-8.4c-9.6-2.7-21.4,0-31.4-1.1
		c-15.7-1.9-31-1.2-42.5-12.6c0-11.1-8-16.5-11.5-25.6c-1.9-5-1.9-10.7-1.9-16.1c0.3,0,0.5-0.1,0.8-0.3c-0.1-0.1-0.2-0.3-0.4-0.4
		v-1.3c-13.1-13.1-5.9-43.2-22.9-52.3c-15.7-8.5-34.7-26.2-43.2-41.9c-1.3-2-2.6-5.9-3.3-7.8c-3.3-9.8,3.3-22.2,1.3-32.7
		c-2.6-11.8-10.5-22.9-14.4-34c-6.5-19-20.9-35.3-29.5-53c-6.5-13.1-9.8-41.2-22.9-50.4h-0.6c0-2-4.6-5.9-5.9-6.5
		c-5.2-3.9-9.2-7.8-15.7-9.8c-2.6-0.6-8.5,1.3-10.5,0V433c-0.2-0.1-0.4-0.3-0.6-0.4l0,4.3c-3.3,0-12.4,3.3-15,5.2v0.6
		c-7.2,5.9-25.5,8.5-34.7,8.5c-2,3.9-15.7,9.2-15.7,13.1c-5.9,3.9-8.5,11.8-14.4,15.7c-2.6,0-6.5-0.7-8.5-0.7c0-1.3-5.9-3.3-5.9-5.9
		l-0.6-0.7H509c-7.2-5.2-15-15-20.9-20.9h-3.3c0,16.4,3.3,34.7,10.5,49.1c14.4,0,24.2-22.9,37.9-19c16.4,4.6,20.9,21.6,32.1,32.7
		h6.5c11.1-11.1,3.9-31.4,14.4-41.9c8.5,0,30.1,4.6,33.4,13.7l3.9,14.4c2,5.2,7.8,8.5,9.8,13.7c2.6,7.2,3.3,17.7,5.9,25.5h0.6
		c6.5,8.5,21.6,14.4,27.5,22.9c8.5,12.4,7.2,30.8,16.4,43.2l-0.6,11.8l-0.6,0.7c-13.7,0-30.1,8.5-45.8,4.6
		c-30.8-7.8-66.7,1.3-98.1-5.9c-12.4-2.6-24.2-10.5-36-14.4c-21.6-6.5-47.8-21.6-64.8-36c-5.2-3.9-13.1-9.2-16.4-15.7
		c-6.5,0-15.7,9.2-20.9,12.4c-22.2,13.1-38.6-15.7-56.9-23.6c-1.3-0.6-5.9,0-7.2,0c-1.3,2.6-3.9,5.9-4.6,9.2
		c-1.3,5.9-3.3,26.8,4.6,29.5c11.8,3.9,36.6,15,36.6,29.4c-0.7,0-2,1.3-2.6,1.3c0,0.6-1.3,2-2,2c-15,6.5-36.6-2.6-47.1-13.1
		c-12.4,0-22.2,14.4-36,6.5c-0.6,0-2.6-2.6-2.6-3.3c-7.8-5.2-13.1-20.3-15.7-29.4l-18.4-54.9c-3.3-9.8-9.2-14.4-4.6-25.5
		c0-1.3,3.9-5.2,3.9-5.2c9.1-0.2,18.2,2.1,26.2,6.5c24.2,12.4,57.6,3.9,83.1,13.1c1.3,0,3.9,2.6,4.6,3.3c0.6,0.7,2,3.3,3.3,3.3
		c7.2,2,18.3-2.6,26.2-1.3c4.6,0.6,8.5,3.9,13.1,3.3c0.6,0,2.6-1.3,3.3-1.3c-0.2-4.2-3.1-7.7-7.2-8.5l-33.4-5.9
		c-8.5-1.3-18.3,1.3-25.5-3.9c-0.6,0-2.6-3.3-2.6-3.9c-9.8-21.6-13.1-51.7-16.4-74.6c-3.3-20.9,5.2-43.8,2-65.4
		c0-1.3-1.3-3.9-1.3-5.2c-22.9,11.1-48.4,29.4-65.4,48.4c-5.2,5.9-8.5,17-14.4,22.2c-4.6,3.9-16.4,3.3-20.9,0
		c-3.3-2-6.5-12.4-10.5-13.1c-7.8-2-11.8,0.6-19-3.9c0-5.2,2.6-15,7.8-17.7c0-0.6,0.6-1.3,1.3-1.3l0.6-1.3c3.3,0,21.6-2.6,22.2-5.9
		c0.6-2.6,0-7.8,0-10.5c-3.9-2-17.7,3.3-19-3.3c-2.6-10.5,11.8-25.5,16.4-33.4c2.6-4.6,3.3-11.8,7.2-15.7c2.6-3.3,9.2-6.5,11.1-9.8
		c2,0,4.6-0.6,6.5-0.6c7.2,7.2,28.1,8.5,28.1-5.9c-5.2,0-11.8,2.6-17.7,2c-4.6-0.7-11.1-9.2-13.7-9.2c0-7.8-5.2-14.4-0.6-22.9
		c1.3-2,4.6-5.9,4.6-8.5c15-9.8,26.8-29.4,45.1-34.7c3.9-0.6,7.2,3.3,9.2,3.3c0,2,1.3,5.2,2,6.5c2.6,0,5.9-0.6,7.8-2v-0.6
		c1.3-1.3,4.6-1.3,6.5-3.3c5.2,0,10.5,2,10.5,7.8c7.2,0,13.7,5.2,19.6,5.2c0,3.3,3.3,9.8,5.9,11.1c9.2,5.2,19.6,15.7,30.1,19
		c6.5,2,4.6,8.5,6.5,13.1c0.6,2.6,2.6,5.9,5.2,7.2c0,0.6,0.6,1.3,1.3,1.3c0,5.9,12.4,7.2,15,10.5c2,2.6,4.6,7.2,5.9,10.5
		c9.2,0,11.1,17.7,16.4,22.2v0.6l4.4,0.9l0.8,1.1c1.3,0,5.2,9.2,5.2,10.5c11.8,0,20.3-0.7,31.4-3.9c5.9-1.3,14.4-11.1,19.6-11.1
		c0-2,7.2-5.2,7.8-7.2c7.8-16.4,0-40.6,0-58.9c21.6-21.6,46.4,4.6,62.8,20.9l-0.6,19.6c-2,9.8-5.2,15-9.2,22.9h-0.7
		c-19,13.1-37.9,30.1-62.8,30.1c-2.6,2.6-6.5,5.9-8.5,9.2c-10.5,15.7,11.1,24.9,8.5,37.3c-1.3,5.2,0,11.8,0,17
		c0.7,0,2.6-0.7,3.3-0.7c22.2-12.4,30.1-61.5,63.5-52.3c6.3,1.3,13.9,2.5,20.3,2.6L582.3,367.6L582.3,367.6z"/>
</g>
</svg>
