<?xml version="1.0" encoding="utf-8"?>
<!-- Generator: Adobe Illustrator 25.3.1, SVG Export Plug-In . SVG Version: 6.00 Build 0)  -->
<svg version="1.1" id="Layer_1" xmlns="http://www.w3.org/2000/svg" xmlns:xlink="http://www.w3.org/1999/xlink" x="0px" y="0px"
	 viewBox="0 0 2279.4 295.1" style="enable-background:new 0 0 2279.4 295.1;" xml:space="preserve">
<style type="text/css">
	.st0{fill-rule:evenodd;clip-rule:evenodd;fill:#2566AF;}
</style>
<g>
	<path class="st0" d="M946.6,204.5c-0.4,25.8,6.4,48.1,34.6,48.1c21,0,34.1-9.9,36.9-28.6h69.9c-2.4,25.8-18.7,44.5-37.7,55.6
		c-17.5,11.1-39.7,15.5-63.2,15.5c-79.8,0-111.6-34.2-111.6-112.4c0-63.1,47.3-98.9,107.3-98.9c81,0,106.9,46.5,106.9,120.8
		L946.6,204.5L946.6,204.5z M1018.1,164c0-10.7-3.2-21.5-9.1-29.8s-14.7-13.5-26.2-12.7c-26.2,1.2-32.6,19.9-34.6,42.5L1018.1,164
		L1018.1,164z M0,289.1V2.3h131.9c70.3,0,116.4,22.6,116.4,92.2c0,69.5-46.1,92.2-116.4,92.2H79.4v102.5L0,289.1L0,289.1L0,289.1z
		 M120.4,131c31.4-1.2,44.5-15.5,44.5-36.5c0-21-13.1-35.4-44.5-36.5H79.5V131L120.4,131L120.4,131z M482.9,189.4
		c0,73.5-53.6,105.7-116,105.7c-62.4,0-116-32.2-116-105.7c0-73.5,53.6-105.7,116-105.7C429.3,83.7,482.9,115.9,482.9,189.4z
		 M366.9,251.4c31.8,0,38.5-33.8,38.5-62c0-28.2-6.7-62-38.5-62c-31.8,0-38.5,33.8-38.5,62C328.4,217.6,335.2,251.4,366.9,251.4z
		 M614.4,151.2c0-6.8-1.2-12.7-4.8-16.7c-4-4.4-10.3-7.1-20.7-7.1c-11.1,0-17.9,6.3-17.9,17.9c0,14.7,30.6,13.9,77.8,28.6
		c23.8,7.5,40.1,22.2,40.1,54.8c0,52.8-49.7,66.3-95.3,66.3c-48.9,0-96.5-9.9-96.1-70.7h71.5c-1.2,6,0.8,12.7,5.2,17.9
		c4.4,5.1,10.7,9.1,17.9,9.1c14.7,0,25.4-5.6,25.4-18.3c0-35.4-118-14.3-118-86.6c0-49.2,52.4-62.8,92.2-62.8
		c47.3,0,91,12.3,94.1,67.5L614.4,151.2L614.4,151.2z M738.8,89.7V59.5l75.5-28.6v58.8H858v47.7h-43.7v79.1c0,5.2-3.2,31,14.3,31
		c9.9,0,20.3,0,29-1.2v44.9c-17.1,3.2-29.4,4-40.5,4c-51.2,0-82.2-7.2-78.2-68.3v-89.4h-38.9V89.7L738.8,89.7L738.8,89.7z
		 M1122.2,87.7h37.8v200h-37.8V87.7z M1118.6,0h45v41.1h-45V0z M1220.7,87.7V45l37.8-12v54.6l46.2-1.2v28.3l-46.2-0.4v129.1
		c0,14.3,11.2,21.1,24.7,21.1c6,0,13.9-0.8,19.9-2.4v29.1c-8.8,0.4-17.1,2.4-25.9,2.4c-9.2,0-16.3-0.4-25.5-2
		c-6-1.2-15.9-4.4-22.3-13.2c-6.8-9.6-8.8-10.4-8.8-37V114.3l-34.3,0.4V86.5L1220.7,87.7L1220.7,87.7z M1453.4,164.2
		c0-34.7-2-55-42.2-55c-19.1,0-37.1,11.2-37.5,31.9h-39.8c2-43.8,36.3-59.4,75.7-59.4c41,0,81.7,12.3,81.7,68.1v95.6
		c0,8.8,0.4,25.5,1.6,42.2h-25.5c-3.6,0-10.4,2-10.8-2.8c-0.8-9.2-1.6-17.9-2-27.1h-0.8c-12.3,25.1-34.7,35.9-62.2,35.9
		c-34.7,0-69.7-18-69.7-57c0-56.2,49.8-72.5,97.2-72.5H1453.4L1453.4,164.2z M1415.6,190.5c-23.1,1.2-53.8,9.6-53.8,38.6
		c0,24.7,17.1,37.1,39.5,37.1c44.6,0,53-38.6,52.2-75.7L1415.6,190.5L1415.6,190.5L1415.6,190.5z M1528.9,0h37.8v287.7h-37.8
		L1528.9,0L1528.9,0z M1613.9,87.7h37.9v200h-37.9V87.7z M1610.3,0h45v41.1h-45V0z M1817.4,164.2c0-34.7-2-55-42.2-55
		c-19.1,0-37.1,11.2-37.4,31.9h-39.9c2-43.8,36.3-59.4,75.7-59.4c41,0,81.7,12.3,81.7,68.1v95.6c0,8.8,0.4,25.5,1.6,42.2h-25.5
		c-3.6,0-10.4,2-10.8-2.8c-0.8-9.2-1.6-17.9-2-27.1h-0.8c-12.3,25.1-34.7,35.9-62.2,35.9c-34.7,0-69.7-18-69.7-57
		c0-56.2,49.8-72.5,97.2-72.5H1817.4L1817.4,164.2z M1779.5,190.5c-23.1,1.2-53.8,9.6-53.8,38.6c0,24.7,17.1,37.1,39.5,37.1
		c44.6,0,53-38.6,52.2-75.7L1779.5,190.5L1779.5,190.5L1779.5,190.5z M1931.5,117.2h0.8c12.7-25.1,40.7-35.5,60.6-35.5
		c13.9,0,75.7,3.6,75.7,67.7v138.3h-37.9V161.8c0-33.1-13.9-51-45.8-51c0,0-20.8-1.2-36.7,14.8c-5.6,5.6-15.9,14.3-15.9,53.4v108.8
		h-37.8v-200h37L1931.5,117.2L1931.5,117.2L1931.5,117.2z M2138.3,194.9c-2.8,35.1,11.6,71.3,50.2,71.3c29.5,0,44.2-11.6,48.6-40.7
		h39.8c-6,45.4-41,68.2-88.9,68.2c-64.1,0-89.6-45.4-89.6-104.4c0-58.6,29.5-107.6,92.8-107.6c59.8,1.2,88.1,39.1,88.1,94.4v18.7
		L2138.3,194.9L2138.3,194.9L2138.3,194.9z M2239.6,168.6c0.8-33.5-14.4-59.4-51-59.4c-31.5,0-50.2,26.7-50.2,59.4H2239.6
		L2239.6,168.6z"/>
</g>
</svg>
