<?xml version="1.0" encoding="utf-8"?>
<!-- Generator: Adobe Illustrator 25.3.1, SVG Export Plug-In . SVG Version: 6.00 Build 0)  -->
<svg version="1.1" id="Layer_1" xmlns="http://www.w3.org/2000/svg" xmlns:xlink="http://www.w3.org/1999/xlink" x="0px" y="0px"
	 viewBox="0 0 2426.5 561.5" style="enable-background:new 0 0 2426.5 561.5;" xml:space="preserve">
<style type="text/css">
	.st0{fill-rule:evenodd;clip-rule:evenodd;}
</style>
<g>
	<path class="st0" d="M639.2,0H115.4c0,0-123.8,0.9-115,144.8L639.2,273v-42.4L76.9,155h562.3V0z M0.7,560.3h523.6
		c0,0,123.7-0.9,114.9-144.8L0.7,287.2v1.7l467.1,116.3H0.7V560.3z M3.4,249.3l635.8,142.5v-42.3L79.6,261.2L3.4,249.3z M2.5,194.4
		l636.7,138V290L78.8,205.8L2.5,194.4L2.5,194.4z M710.1,0.1h534.3v156.5H710.1V0.1z M1429.8,157.4l62.9-157.3h259.1l66.8,157.9
		L1429.8,157.4L1429.8,157.4z M1843.2,215.2l146.1,346.3h-199.7l-97.2-188.9h-134.9l-97.1,188.9H710.1V216h534.3v156.5H926v32.4
		h388.6l92.5-189.8H1843.2z M1892.1,0.1h534.4v156.5h-534.4V0.1z M2091.8,216h156.5v345.4h-156.5V216z"/>
</g>
</svg>
