<?xml version="1.0" encoding="utf-8"?>
<!-- Generator: Adobe Illustrator 25.3.1, SVG Export Plug-In . SVG Version: 6.00 Build 0)  -->
<svg version="1.1" id="Layer_1" xmlns="http://www.w3.org/2000/svg" xmlns:xlink="http://www.w3.org/1999/xlink" x="0px" y="0px"
	 viewBox="0 0 2294.6 734" style="enable-background:new 0 0 2294.6 734;" xml:space="preserve">
<style type="text/css">
	.st0{fill:#33348E;}
	.st1{fill:#FFFFFF;}
	.st2{fill:#CC2229;}
</style>
<path class="st0" d="M2238.4,138.9c0,0-351.3-138.9-1091.1-138.9C407.5,0,56.2,138.9,56.2,138.9C23.1,160.4,0,172.4,0,203.4v335.5
	c0,30.9,41.8,69.5,72.7,69.5c0,0,367.2,125.7,1074.6,125.7s1074.6-125.7,1074.6-125.7c30.9,0,72.7-38.5,72.7-69.5V203.4
	C2294.6,172.4,2271.4,160.3,2238.4,138.9L2238.4,138.9z"/>
<path class="st1" d="M1546,155.4l-102.5,396.8h94.8l102.6-396.8H1546z M1489.8,155.4h-302.3l-23.7,79.3h109l-86.4,317.4h94.8
	l86.3-317.4h98.5L1489.8,155.4z M1959,155.4l-96.5,132.3L1829,155.4h-94.8l-102.5,396.8h94.8l58.8-227.6l37.7,112.9l87.1-92.3
	l-53.5,207h94.7l102.6-396.8H1959z"/>
<path class="st2" d="M853,234.7l-38-74.4l-312.5,74.4H289.2l-10.5,43h218.9l329-74.4l36.4,74.4h213.5l10.5-43H853z"/>
<path class="st2" d="M799.5,229.8l-312.4,74.4H273.7l-11.8,46.3h218.9l329-74.4l36.4,74.4h213.5l11.8-46.3H837.5L799.5,229.8z"/>
<path class="st2" d="M764.3,310l-299.2,74.4H251.8l-15.1,62h219L778,372l36.4,74.4h220.1l15.1-62H802.4L764.3,310z"/>
<path class="st2" d="M710,408.3l-266.1,61.2H230.5l-22.2,82.7h253.3L729.7,491l43,61.2H1006l22.2-82.7H748.1L710,408.3z"/>
</svg>
