<?xml version="1.0" encoding="utf-8"?>
<!-- Generator: Adobe Illustrator 25.3.1, SVG Export Plug-In . SVG Version: 6.00 Build 0)  -->
<svg version="1.1" id="Layer_1" xmlns="http://www.w3.org/2000/svg" xmlns:xlink="http://www.w3.org/1999/xlink" x="0px" y="0px"
	 viewBox="0 0 693.28 437.56" style="enable-background:new 0 0 693.28 437.56;" xml:space="preserve">
<style type="text/css">
	.st0{fill:#0D2374;stroke:#FFFFFF;stroke-width:0.5;stroke-miterlimit:10;}
	.st1{fill:#084198;stroke:#FFFFFF;stroke-width:0.5;stroke-miterlimit:10;}
	.st2{fill:#3965E2;stroke:#FFFFFF;stroke-width:0.5;stroke-miterlimit:10;}
	.st3{fill:#02729B;stroke:#FFFFFF;stroke-width:0.5;stroke-miterlimit:10;}
	.st4{fill:#6B3B8C;stroke:#FFFFFF;stroke-width:0.5;stroke-miterlimit:10;}
	.st5{fill:#50CCAB;stroke:#FFFFFF;stroke-width:0.5;stroke-miterlimit:10;}
	.st6{fill:#4DA5D9;stroke:#FFFFFF;stroke-width:0.5;stroke-miterlimit:10;}
	.st7{fill:#FFA989;stroke:#FFFFFF;stroke-width:0.5;stroke-miterlimit:10;}
	.st8{fill:#F7CD73;stroke:#FFFFFF;stroke-width:0.5;stroke-miterlimit:10;}
	.st9{fill:#AF6A58;stroke:#FFFFFF;stroke-width:0.5;stroke-miterlimit:10;}
	.st10{fill:#8D3A6D;stroke:#FFFFFF;stroke-width:0.5;stroke-miterlimit:10;}
	.st11{fill:none;}
	.st12{fill:#FFFFFF;}
	.st13{font-family:'Roboto',Helvetica;}
	.st14{font-size:14px;}
	.st15{fill:none;stroke:#FCFCFC;stroke-width:0.5;stroke-miterlimit:10;}
</style>
<g>
	<g>
		<g>
			<path class="st0" d="M347.11,304.34c-7.9,0-15.54-1.05-22.8-2.99l-11.18,40.92c34.19,8.98,66.8,4.77,97.46-12.58l-21.26-36.1
				C376.85,300.42,362.46,304.34,347.11,304.34z"/>
			<g>
				<path class="st1" d="M324.31,301.35c-22.09-5.88-40.61-20.09-51.76-38.92l-37.41,21.17c17.7,30.05,43.8,49.69,77.99,58.67"/>
				<path class="st1" d="M346.36,220.64"/>
				<g>
					<path class="st2" d="M218.11,227.23c1.11,20.76,6.43,38.36,17.03,56.37l37.41-21.17c-6.58-11.11-10.6-23.84-11.26-37.41
						L218.11,227.23z"/>
					<path class="st3" d="M266,193.52l-41.07-13.87c-5.7,16.24-7.74,30.43-6.82,47.58l43.18-2.22c-0.06-1.32-0.11-2.64-0.11-3.97
						C261.18,211.39,262.89,202.14,266,193.52z"/>
				</g>
			</g>
		</g>
		<path class="st4" d="M474.62,214.05l-41.73,2.14c0.09,1.6,0.16,3.22,0.16,4.84c0,31.13-17.63,58.25-43.72,72.55l21.26,36.1
			C453.52,305.38,477.22,262.6,474.62,214.05z"/>
	</g>
	<g>
		<path class="st5" d="M290.89,158.08l-28.78-32.46c-8.67,7.39-14.36,13.58-20.95,22.81l35.79,24.57
			C280.96,167.49,285.65,162.48,290.89,158.08z"/>
	</g>
	<g>
		<path class="st6" d="M241.16,148.42c-7.08,9.91-12.21,19.79-16.23,31.23l25.42,8.58l15.66,5.29c2.66-7.37,6.37-14.26,10.94-20.53"
			/>
		<line class="st6" x1="346.36" y1="220.64" x2="346.36" y2="220.64"/>
	</g>
	<g>
		<path class="st7" d="M290.89,158.08c5.57-4.68,11.77-8.67,18.45-11.85l-19.28-38.75c-10.14,4.85-19.45,10.89-27.96,18.14"/>
		<line class="st7" x1="346.36" y1="220.64" x2="346.36" y2="220.64"/>
	</g>
	<g>
		<path class="st8" d="M317.47,97.96c-10.16,2.3-18.04,5.03-27.41,9.52l19.28,38.75c5.68-2.71,11.72-4.82,18.02-6.26L317.47,97.96z"
			/>
	</g>
	<g>
		<path class="st9" d="M346.36,94.73c-9.72,0-19.42,1.08-28.89,3.23l9.89,42c6.11-1.4,12.47-2.15,19-2.21V94.73z"/>
	</g>
	<g>
		<g>
			<g>
				<g>
					<path class="st10" d="M346.36,137.75L346.36,137.75V94.73c69.02,0,124.64,51.75,128.26,119.32l-41.73,2.14
						c0,0,0.9-32.12-29.52-58.12C377.31,135.82,346.36,137.75,346.36,137.75z"/>
				</g>
			</g>
		</g>
		<g>
			<g>
			</g>
			<g>
			</g>
			<g>
			</g>
			<g>
			</g>
			<g>
			</g>
			<g>
			</g>
			<g>
			</g>
			<g>
			</g>
			<g>
			</g>
			<g>
			</g>
			<g>
			</g>
		</g>
	</g>
</g>
<g>
	<rect x="540.41" y="129.53" class="st11" width="152.87" height="46.64"/>
	<text transform="matrix(1 0 0 1 564.357 140.0332)"><tspan x="0" y="0" class="st12 st13 st14">Automobile Mfg.</tspan><tspan x="28.53" y="16.8" class="st12 st13 st14">€39.7m</tspan></text>
</g>
<g>
	<rect x="542.35" y="271.74" class="st11" width="96.86" height="46.64"/>
	<text transform="matrix(1 0 0 1 559.8814 282.2371)"><tspan x="0" y="0" class="st12 st13 st14">Telecoms</tspan><tspan x="12.88" y="16.8" class="st12 st13 st14">€28m</tspan></text>
</g>
<g>
	<rect x="340.36" y="390.91" class="st11" width="85.38" height="46.64"/>
	<text transform="matrix(1 0 0 1 357.6434 401.4133)"><tspan x="0" y="0" class="st12 st13 st14">Banking</tspan><tspan x="1.44" y="16.8" class="st12 st13 st14">€20.8m</tspan></text>
</g>
<g>
	<rect x="183.8" y="377.95" class="st11" width="86.08" height="46.64"/>
	<text transform="matrix(1 0 0 1 204.3664 388.455)"><tspan x="0" y="0" class="st12 st13 st14">Betting</tspan><tspan x="-1.48" y="16.8" class="st12 st13 st14">€20.5m</tspan></text>
</g>
<g>
	<rect x="78.04" y="34.45" class="st11" width="152.87" height="46.64"/>
	<text transform="matrix(1 0 0 1 98.374 44.9495)"><tspan x="0" y="0" class="st12 st13 st14">Food &amp; Drink Dist.</tspan><tspan x="36.11" y="16.8" class="st12 st13 st14">€6.4m</tspan></text>
</g>
<g>
	<rect x="288.99" y="1.69" class="st11" width="57.37" height="46.64"/>
	<text transform="matrix(1 0 0 1 303.2809 12.1875)"><tspan x="0" y="0" class="st12 st13 st14">Beer</tspan><tspan x="-5.59" y="16.8" class="st12 st13 st14">€5.9m</tspan></text>
</g>
<g>
	<rect x="401.22" y="22.26" class="st11" width="98.77" height="46.64"/>
	<text transform="matrix(1 0 0 1 419.6688 32.7581)"><tspan x="0" y="0" class="st12 st13 st14">Insurance</tspan><tspan x="10.95" y="16.8" class="st12 st13 st14">€5.5m</tspan></text>
</g>
<polyline class="st15" points="439.93,176.19 464.28,135.55 542.35,135.55 "/>
<line class="st15" x1="441.95" y1="279.2" x2="542.35" y2="279.2"/>
<line class="st15" x1="381.25" y1="321.56" x2="381.25" y2="379.84"/>
<line class="st15" x1="292.8" y1="309.33" x2="233.98" y2="368.18"/>
<line class="st15" x1="248.23" y1="250.96" x2="130.48" y2="304.25"/>
<line class="st15" x1="244.78" y1="207.68" x2="113.45" y2="237.9"/>
<line class="st15" x1="253.43" y1="170.24" x2="111.82" y2="176.19"/>
<polyline class="st15" points="268.06,146.91 226.86,112.15 125.58,112.15 "/>
<line class="st15" x1="292.8" y1="126.37" x2="213.43" y2="57.77"/>
<line class="st15" x1="311.5" y1="112.15" x2="317.67" y2="45.58"/>
<polyline class="st15" points="338.01,107.63 374.92,34.45 406.04,33.05 "/>
<text transform="matrix(1 0 0 1 64.0079 311.8109)" class="st12 st13 st14">Airlines</text>
<text transform="matrix(1 0 0 1 63.7681 331.0111)" class="st12 st13 st14">€12.1m</text>
<text transform="matrix(1 0 0 1 20.7681 242.6429)"><tspan x="0" y="0" class="st12 st13 st14">Elect</tspan><tspan x="30.99" y="0" class="st12 st13 st14">r</tspan><tspan x="35.67" y="0" class="st12 st13 st14">onics</tspan></text>
<text transform="matrix(1 0 0 1 37.6797 261.8431)" class="st12 st13 st14">€9.9m</text>
<text transform="matrix(1 0 0 1 5.340576e-05 179.8744)"><tspan x="0" y="0" class="st12 st13 st14">Supermar</tspan><tspan x="61.22" y="0" class="st12 st13 st14">k</tspan><tspan x="68.38" y="0" class="st12 st13 st14">ets</tspan></text>
<text transform="matrix(1 0 0 1 34.1119 199.0746)" class="st12 st13 st14">€7m</text>
<text transform="matrix(1 0 0 1 5.3755 116.1068)"><tspan x="0" y="0" class="st12 st13 st14">Ene</tspan><tspan x="23.21" y="0" class="st12 st13 st14">r</tspan><tspan x="28.01" y="0" class="st12 st13 st14">gy Utilities</tspan></text>
<text transform="matrix(1 0 0 1 36.0965 135.307)" class="st12 st13 st14">€6.5m</text>
</svg>
