<?xml version="1.0" encoding="utf-8"?>
<!-- Generator: Adobe Illustrator 23.0.1, SVG Export Plug-In . SVG Version: 6.00 Build 0)  -->
<svg version="1.1" xmlns="http://www.w3.org/2000/svg" xmlns:xlink="http://www.w3.org/1999/xlink" x="0px" y="0px"
	 viewBox="0 0 348.73 66.36" style="enable-background:new 0 0 348.73 66.36;" xml:space="preserve">
<style type="text/css">
	.st0{fill:#FFFFFF;}
	.st1{opacity:0.7;fill:#FFFFFF;}
	.st2{opacity:0.45;fill:#FFFFFF;}
	.st3{opacity:0.75;fill:#FFFFFF;}
	.st4{opacity:0.2;fill:#FFFFFF;}
</style>
<g id="Layer_1">
	<g>
		<g>
			<path class="st0" d="M253.32,26.52l-6.96,3.46v19.25h6.96V26.52z M70.69,26.52c0-2.78,2.26-4.18,5.22-4.18
				c2.96,0,5.13,1.65,6.61,3.22l2.22-2.87c-0.83-0.87-3.7-3.87-8.61-3.87c-2.91,0-5.26,0.83-6.92,2.22
				c-1.61,1.35-2.74,3.35-2.74,5.79c0,2.44,0.87,4.09,1.96,5.22c1.09,1.17,2.35,1.83,3,2.13c1.13,0.57,3.22,1.39,4.79,2
				c1.52,0.61,4.87,1.83,4.87,4.96c0,3.18-2.61,5.05-5.87,5.05c-3.26,0-6.09-2.26-7.61-4.31l-2.48,2.83
				c1.44,1.65,4.44,5.05,9.7,5.05c3,0,5.48-0.83,7.35-2.35c1.96-1.61,3.13-3.91,3.13-6.53c0-2.26-0.87-3.87-1.83-5.05
				c-1-1.17-2.83-2.17-3.39-2.44l-5.53-2.31C72.73,30.35,70.69,29.31,70.69,26.52 M106.49,38.84c0,4.13-2.44,7.31-6.57,7.31
				c-4.13,0-6.57-3.18-6.57-7.31s2.44-7.27,6.57-7.27C104.06,31.57,106.49,34.7,106.49,38.84 M110.76,38.88
				c0-6.13-3.87-10.7-9.96-10.7c-3.05,0-5.52,1.22-7.35,3.65h-0.09V27.7l-4,2.31l0.05,29.37l4.13-2.42V45.97l0.04,0.04
				c1.48,2.31,3.87,3.7,7.13,3.7C106.84,49.71,110.76,45.01,110.76,38.88 M131.84,38.84c0,4.09-2.57,7.31-6.7,7.31
				c-4.18,0-6.74-3.22-6.74-7.31c0-4.05,2.57-7.27,6.74-7.27C129.28,31.57,131.84,34.79,131.84,38.84 M136.06,38.97
				c0-6.39-4.79-10.79-10.92-10.79c-6.18,0-10.96,4.39-10.96,10.79c0,6.44,4.79,10.74,10.96,10.74
				C131.28,49.71,136.06,45.4,136.06,38.97 M151.82,31.93l-0.04-3.4c0,0-0.79-0.19-2.17-0.02c-2.62,0.32-3.83,1.18-5.25,3.15
				l0.02-1.02l0.04-2.85l-4.18,2.18v19.28h4.18V38.92c0-3.05,0.87-4.65,1.26-5.22c0.43-0.57,1.57-1.69,3.39-1.74
				C150.24,31.93,151.82,31.93,151.82,31.93 M162.26,41.32v-9.35h4.96v-3.35h-4.96l-0.01-6.5l-4.17,1.92v4.58h-3.05v3.35h3.05v9.44
				c0,3.26,0.17,4.87,1.04,6.18c0.87,1.31,2.22,2.13,4.39,2.13s3.79-0.7,3.79-0.7l-0.26-3.35c0,0-0.91,0.48-2.13,0.48
				c-1.17,0-1.74-0.39-2.13-1.04C162.3,44.23,162.26,43.06,162.26,41.32 M187.85,40.05c0,1.31-0.48,2.31-1.52,3
				c-1.04,0.74-2.22,0.83-3.74,0.83h-3.87v-7.66h3.87c1.52,0,2.7,0.09,3.74,0.83C187.37,37.79,187.85,38.71,187.85,40.05
				 M186.24,27.83c0,1.48-0.61,2.26-1.48,2.87c-0.83,0.57-1.74,0.65-3.31,0.65h-2.74v-6.92h2.91c1.52,0,2.31,0.09,3.13,0.61
				C185.63,25.57,186.24,26.39,186.24,27.83 M194.98,40.62c0-3.7-2.48-6.22-6.22-7.13V33.4c2.26-0.78,4.39-3.31,4.39-6.61
				s-1.83-5.26-3.83-6.31c-2-1.04-4.65-1.26-7.4-1.26h-9.85v30.02h11.9c3.09,0,5.79-0.57,7.7-1.96
				C193.59,45.88,194.98,43.93,194.98,40.62 M213.02,49.23h6.7V27.79h-6.96v11.4c0,2.83-1.13,4.79-3.61,4.79
				c-2.48,0-3.18-1.7-3.18-4.18V27.79h-6.96v12.96c0,3.09,0.52,4.96,1.57,6.44c1.09,1.43,3.05,2.52,6.13,2.52s5.35-1.61,6.26-2.91
				L213.02,49.23z M231.06,33.57c0-1.13,0.91-1.57,2.57-1.57c1.74,0,4.18,1.13,5.39,2.09l2.26-4.09c-1.22-1-3.74-2.65-8.22-2.65
				c-4.48,0-8.13,2.57-8.13,6.74c0,3.83,2.65,5.18,3.65,5.61c1,0.44,2.22,0.78,3.05,1c0.78,0.26,3.91,0.96,3.91,2.35
				c0,1.39-1.22,1.83-2.96,1.83c-1.74,0-4.61-1.13-6.35-2.61l-2.61,4.13c2.44,2.31,5.83,3.31,9.05,3.31c2.87,0,5-0.65,6.57-1.87
				c1.57-1.26,2.52-3,2.52-5.22c0-2.26-1.04-3.65-1.74-4.35c-0.74-0.7-1.83-1.26-2.78-1.61c-0.91-0.35-1.57-0.57-3.05-1
				C232.71,35.23,231.06,34.7,231.06,33.57 M273.24,49.23h6.96V36.57c0-5.18-1.61-9.18-7.83-9.18c-4.59,0-6.31,3.48-6.22,3.48h-0.09
				l0.04-4.4l-6.96,3.5v19.26h6.96V38.62c0-3.09,0.83-5.52,3.83-5.52c2.87,0,3.31,2.13,3.31,4.96V49.23z M300.37,36.23h-8.83
				c0.09-2.04,1.57-4.31,4.44-4.31C298.89,31.92,300.33,34.27,300.37,36.23 M306.77,40.18c0,0,0.09-1.26,0.09-2.31
				c0-6.27-4.39-10.48-10.75-10.48c-6.35,0-11.57,4.05-11.57,11.14c0,7.09,4.83,11.18,11.44,11.18c6.66,0,9.48-2.96,10.18-3.48
				l-2.74-3.61c-1.22,0.83-3.65,2.04-6.44,2.04c-2.83,0-5.18-1.39-5.48-4.48H306.77z M317.28,33.57c0-1.13,0.91-1.57,2.57-1.57
				c1.74,0,4.18,1.13,5.39,2.09l2.26-4.09c-1.22-1-3.74-2.65-8.22-2.65s-8.13,2.57-8.13,6.74c0,3.83,2.65,5.18,3.65,5.61
				c1,0.44,2.22,0.78,3.05,1c0.78,0.26,3.92,0.96,3.92,2.35c0,1.39-1.22,1.83-2.96,1.83c-1.74,0-4.61-1.13-6.35-2.61l-2.61,4.13
				c2.44,2.31,5.83,3.31,9.05,3.31c2.87,0,5-0.65,6.57-1.87c1.57-1.26,2.52-3,2.52-5.22c0-2.26-1.04-3.65-1.74-4.35
				c-0.74-0.7-1.83-1.26-2.78-1.61c-0.91-0.35-1.57-0.57-3.04-1C318.94,35.23,317.28,34.7,317.28,33.57 M345.99,34.09l2.26-4.09
				c-1.22-1-3.74-2.65-8.22-2.65c-4.48,0-8.13,2.57-8.13,6.74c0,3.83,2.65,5.18,3.65,5.61c1,0.44,2.22,0.78,3.05,1
				c0.78,0.26,3.91,0.96,3.91,2.35c0,1.39-1.22,1.83-2.96,1.83c-1.74,0-4.61-1.13-6.35-2.61l-2.61,4.13
				c2.44,2.31,5.83,3.31,9.05,3.31c2.87,0,5-0.65,6.57-1.87c1.57-1.26,2.52-3,2.52-5.22c0-2.26-1.04-3.65-1.74-4.35
				c-0.74-0.7-1.83-1.26-2.78-1.61c-0.91-0.35-1.57-0.57-3.05-1c-1.48-0.43-3.13-0.96-3.13-2.09c0-1.13,0.91-1.57,2.57-1.57
				C342.33,32.01,344.77,33.14,345.99,34.09"/>
		</g>
		<polygon class="st1" points="253.17,16.78 246.53,20.09 246.53,26.38 253.17,23.07 		"/>
	</g>
	<g>
		<polygon class="st2" points="0,11.08 0,33.2 22.16,22.13 		"/>
		<polygon class="st0" points="0,33.2 0,55.32 22.16,44.25 		"/>
		<polygon class="st0" points="44.32,11.08 44.32,33.2 22.16,22.13 		"/>
		<polygon class="st2" points="44.32,33.2 44.32,55.32 22.16,44.25 		"/>
		<polygon class="st3" points="22.16,44.24 22.16,66.36 0,55.29 		"/>
		<polygon class="st4" points="22.16,44.24 22.16,66.36 44.33,55.29 		"/>
		<polygon class="st4" points="22.16,0 22.16,22.12 0,11.08 		"/>
		<polygon class="st3" points="22.16,0 22.16,22.12 44.33,11.08 		"/>
	</g>
</g>
<g id="Layer_2">
</g>
<g id="Layer_3">
</g>
<g id="Layer_4">
</g>
</svg>
